NotoSansThaana-Thin.ufo
<glyph name="exclam" format="2">
  <advance width="402"/>
  <unicode hex="0021"/>
  <outline>
    <contour>
      <point x="187" y="174" type="line"/>
      <point x="211" y="174" type="line"/>
      <point x="329" y="714" type="line"/>
      <point x="301" y="714" type="line"/>
    </contour>
    <contour>
      <point x="165" y="-8" type="curve" smooth="yes"/>
      <point x="184" y="-8"/>
      <point x="194" y="14"/>
      <point x="194" y="32" type="curve" smooth="yes"/>
      <point x="194" y="43"/>
      <point x="188" y="54"/>
      <point x="172" y="54" type="curve" smooth="yes"/>
      <point x="152" y="54"/>
      <point x="142" y="32"/>
      <point x="142" y="14" type="curve" smooth="yes"/>
      <point x="142" y="0"/>
      <point x="151" y="-8"/>
    </contour>
  </outline>
</glyph>
<glyph name="quotedbl" format="2">
  <advance width="310"/>
  <unicode hex="0022"/>
  <outline>
    <contour>
      <point x="245" y="482" type="line"/>
      <point x="263" y="482" type="line"/>
      <point x="316" y="714" type="line"/>
      <point x="291" y="714" type="line"/>
    </contour>
    <contour>
      <point x="121" y="482" type="line"/>
      <point x="139" y="482" type="line"/>
      <point x="192" y="714" type="line"/>
      <point x="167" y="714" type="line"/>
    </contour>
  </outline>
</glyph>
<glyph name="parenleft" format="2">
  <advance width="468"/>
  <unicode hex="0028"/>
  <outline>
    <contour>
      <point x="187" y="-158" type="curve"/>
      <point x="216" y="-158" type="line"/>
      <point x="171" y="-79"/>
      <point x="148" y="15"/>
      <point x="148" y="118" type="curve" smooth="yes"/>
      <point x="148" y="340"/>
      <point x="242" y="561"/>
      <point x="401" y="714" type="curve"/>
      <point x="367" y="714" type="line"/>
      <point x="226" y="577"/>
      <point x="122" y="361"/>
      <point x="122" y="118" type="curve" smooth="yes"/>
      <point x="122" y="11"/>
      <point x="145" y="-83"/>
    </contour>
  </outline>
</glyph>
<glyph name="parenright" format="2">
  <advance width="488"/>
  <unicode hex="0029"/>
  <outline>
    <contour>
      <point x="27" y="-158" type="curve"/>
      <point x="61" y="-158" type="line"/>
      <point x="202" y="-21"/>
      <point x="306" y="195"/>
      <point x="306" y="438" type="curve" smooth="yes"/>
      <point x="306" y="545"/>
      <point x="283" y="639"/>
      <point x="241" y="714" type="curve"/>
      <point x="212" y="714" type="line"/>
      <point x="257" y="635"/>
      <point x="280" y="541"/>
      <point x="280" y="438" type="curve" smooth="yes"/>
      <point x="280" y="216"/>
      <point x="186" y="-5"/>
    </contour>
  </outline>
</glyph>
<glyph name="comma" format="2">
  <advance width="364"/>
  <unicode hex="002C"/>
  <outline>
    <contour>
      <point x="184" y="-4" type="curve" smooth="yes"/>
      <point x="211" y="-4"/>
      <point x="216" y="7"/>
      <point x="216" y="27" type="curve" smooth="yes"/>
      <point x="216" y="46"/>
      <point x="207" y="49"/>
      <point x="180" y="53" type="curve"/>
      <point x="180" y="79"/>
      <point x="206" y="155"/>
      <point x="239" y="212" type="curve"/>
      <point x="220" y="223" type="line"/>
      <point x="188" y="175"/>
      <point x="149" y="79"/>
      <point x="149" y="26" type="curve" smooth="yes"/>
      <point x="149" y="0"/>
      <point x="163" y="-4"/>
    </contour>
  </outline>
</glyph>
<glyph name="period" format="2">
  <advance width="364"/>
  <unicode hex="002E"/>
  <outline>
    <contour>
      <point x="156" y="-10" type="curve" smooth="yes"/>
      <point x="184" y="-10"/>
      <point x="194" y="-3"/>
      <point x="194" y="25" type="curve" smooth="yes"/>
      <point x="194" y="44"/>
      <point x="186" y="50"/>
      <point x="166" y="50" type="curve" smooth="yes"/>
      <point x="142" y="50"/>
      <point x="130" y="41"/>
      <point x="130" y="16" type="curve" smooth="yes"/>
      <point x="130" y="-3"/>
      <point x="137" y="-10"/>
    </contour>
  </outline>
</glyph>
<glyph name="zero" format="2">
  <advance width="570"/>
  <unicode hex="0030"/>
  <outline>
    <contour>
      <point x="507" y="360" type="curve" smooth="yes"/>
      <point x="507" y="577"/>
      <point x="459" y="725"/>
      <point x="286" y="725" type="curve" smooth="yes"/>
      <point x="118" y="725"/>
      <point x="62" y="571"/>
      <point x="62" y="360" type="curve" smooth="yes"/>
      <point x="62" y="106"/>
      <point x="141" y="-10"/>
      <point x="285" y="-10" type="curve" smooth="yes"/>
      <point x="436" y="-10"/>
      <point x="507" y="112"/>
    </contour>
    <contour>
      <point x="89" y="360" type="curve" smooth="yes"/>
      <point x="89" y="557"/>
      <point x="136" y="700"/>
      <point x="286" y="700" type="curve" smooth="yes"/>
      <point x="440" y="700"/>
      <point x="480" y="564"/>
      <point x="480" y="360" type="curve" smooth="yes"/>
      <point x="480" y="127"/>
      <point x="422" y="15"/>
      <point x="285" y="15" type="curve" smooth="yes"/>
      <point x="155" y="15"/>
      <point x="89" y="125"/>
    </contour>
  </outline>
</glyph>
<glyph name="two" format="2">
  <advance width="570"/>
  <unicode hex="0032"/>
  <outline>
    <contour>
      <point x="491" y="0" type="line"/>
      <point x="491" y="25" type="line"/>
      <point x="95" y="25" type="line"/>
      <point x="95" y="26" type="line"/>
      <point x="303" y="246" type="line" smooth="yes"/>
      <point x="400" y="348"/>
      <point x="458" y="419"/>
      <point x="458" y="539" type="curve" smooth="yes"/>
      <point x="458" y="652"/>
      <point x="385" y="724"/>
      <point x="270" y="724" type="curve" smooth="yes"/>
      <point x="208" y="724"/>
      <point x="141" y="705"/>
      <point x="80" y="655" type="curve"/>
      <point x="95" y="635" type="line"/>
      <point x="148" y="678"/>
      <point x="211" y="699"/>
      <point x="268" y="699" type="curve" smooth="yes"/>
      <point x="370" y="699"/>
      <point x="431" y="639"/>
      <point x="431" y="539" type="curve" smooth="yes"/>
      <point x="431" y="428"/>
      <point x="380" y="362"/>
      <point x="283" y="260" type="curve" smooth="yes"/>
      <point x="59" y="23" type="line"/>
      <point x="59" y="0" type="line"/>
    </contour>
  </outline>
</glyph>
<glyph name="five" format="2">
  <advance width="570"/>
  <unicode hex="0035"/>
  <outline>
    <contour>
      <point x="274" y="426" type="curve" smooth="yes"/>
      <point x="206" y="426"/>
      <point x="159" y="416"/>
      <point x="126" y="408" type="curve"/>
      <point x="151" y="689" type="line"/>
      <point x="462" y="689" type="line"/>
      <point x="462" y="714" type="line"/>
      <point x="128" y="714" type="line"/>
      <point x="98" y="393" type="line"/>
      <point x="117" y="378" type="line"/>
      <point x="166" y="392"/>
      <point x="212" y="401"/>
      <point x="274" y="401" type="curve" smooth="yes"/>
      <point x="408" y="401"/>
      <point x="478" y="331"/>
      <point x="478" y="217" type="curve" smooth="yes"/>
      <point x="478" y="90"/>
      <point x="389" y="15"/>
      <point x="253" y="15" type="curve" smooth="yes"/>
      <point x="180" y="15"/>
      <point x="119" y="35"/>
      <point x="74" y="62" type="curve"/>
      <point x="74" y="32" type="line"/>
      <point x="116" y="8"/>
      <point x="174" y="-10"/>
      <point x="253" y="-10" type="curve" smooth="yes"/>
      <point x="406" y="-10"/>
      <point x="505" y="76"/>
      <point x="505" y="217" type="curve" smooth="yes"/>
      <point x="505" y="354"/>
      <point x="420" y="426"/>
    </contour>
  </outline>
</glyph>
<glyph name="nine" format="2">
  <advance width="570"/>
  <unicode hex="0039"/>
  <outline>
    <contour>
      <point x="500" y="413" type="curve" smooth="yes"/>
      <point x="500" y="569"/>
      <point x="441" y="726"/>
      <point x="269" y="726" type="curve" smooth="yes"/>
      <point x="133" y="726"/>
      <point x="55" y="630"/>
      <point x="55" y="491" type="curve" smooth="yes"/>
      <point x="55" y="361"/>
      <point x="130" y="277"/>
      <point x="262" y="277" type="curve" smooth="yes"/>
      <point x="377" y="277"/>
      <point x="447" y="338"/>
      <point x="473" y="394" type="curve"/>
      <point x="475" y="394" type="line"/>
      <point x="465" y="112"/>
      <point x="350" y="15"/>
      <point x="201" y="15" type="curve" smooth="yes"/>
      <point x="159" y="15"/>
      <point x="117" y="22"/>
      <point x="93" y="31" type="curve"/>
      <point x="93" y="3" type="line"/>
      <point x="120" y="-5"/>
      <point x="159" y="-10"/>
      <point x="201" y="-10" type="curve" smooth="yes"/>
      <point x="372" y="-10"/>
      <point x="500" y="108"/>
    </contour>
    <contour>
      <point x="269" y="701" type="curve" smooth="yes"/>
      <point x="431" y="701"/>
      <point x="468" y="537"/>
      <point x="468" y="458" type="curve" smooth="yes"/>
      <point x="468" y="391"/>
      <point x="390" y="302"/>
      <point x="264" y="302" type="curve" smooth="yes"/>
      <point x="142" y="302"/>
      <point x="82" y="374"/>
      <point x="82" y="491" type="curve" smooth="yes"/>
      <point x="82" y="621"/>
      <point x="148" y="701"/>
    </contour>
  </outline>
</glyph>
<glyph name="question-ar" format="2">
  <advance width="479"/>
  <unicode hex="061F"/>
  <outline>
    <contour>
      <point x="229" y="177" type="curve"/>
      <point x="255" y="177" type="line"/>
      <point x="262" y="207" type="line" smooth="yes"/>
      <point x="281" y="289"/>
      <point x="272" y="344"/>
      <point x="208" y="398" type="curve" smooth="yes"/>
      <point x="175" y="426" type="line" smooth="yes"/>
      <point x="127" y="467"/>
      <point x="110" y="500"/>
      <point x="110" y="545" type="curve" smooth="yes"/>
      <point x="110" y="644"/>
      <point x="189" y="699"/>
      <point x="294" y="699" type="curve" smooth="yes"/>
      <point x="340" y="699"/>
      <point x="393" y="684"/>
      <point x="436" y="660" type="curve"/>
      <point x="449" y="686" type="line"/>
      <point x="398" y="711"/>
      <point x="347" y="724"/>
      <point x="294" y="724" type="curve" smooth="yes"/>
      <point x="169" y="724"/>
      <point x="84" y="654"/>
      <point x="84" y="543" type="curve" smooth="yes"/>
      <point x="84" y="480"/>
      <point x="113" y="443"/>
      <point x="165" y="401" type="curve" smooth="yes"/>
      <point x="187" y="383" type="line" smooth="yes"/>
      <point x="234" y="344"/>
      <point x="245" y="310"/>
      <point x="245" y="267" type="curve" smooth="yes"/>
      <point x="245" y="244"/>
      <point x="239" y="215"/>
    </contour>
    <contour>
      <point x="205" y="-8" type="curve" smooth="yes"/>
      <point x="224" y="-8"/>
      <point x="234" y="14"/>
      <point x="234" y="32" type="curve" smooth="yes"/>
      <point x="234" y="43"/>
      <point x="228" y="54"/>
      <point x="212" y="54" type="curve" smooth="yes"/>
      <point x="192" y="54"/>
      <point x="182" y="32"/>
      <point x="182" y="14" type="curve" smooth="yes"/>
      <point x="182" y="0"/>
      <point x="191" y="-8"/>
    </contour>
  </outline>
</glyph>
<glyph name="zero-ar" format="2">
  <advance width="239"/>
  <unicode hex="0660"/>
  <outline>
    <contour>
      <point x="134" y="237" type="curve"/>
      <point x="169" y="273" type="line"/>
      <point x="153" y="292"/>
      <point x="124" y="318"/>
      <point x="105" y="333" type="curve"/>
      <point x="70" y="296" type="line"/>
      <point x="92" y="278"/>
      <point x="114" y="258"/>
    </contour>
  </outline>
</glyph>
<glyph name="one-ar" format="2">
  <advance width="217"/>
  <unicode hex="0661"/>
  <outline>
    <contour>
      <point x="147" y="3" type="line"/>
      <point x="147" y="116"/>
      <point x="119" y="447"/>
      <point x="59" y="674" type="curve"/>
      <point x="35" y="668" type="line"/>
      <point x="94" y="447"/>
      <point x="124" y="76"/>
      <point x="124" y="0" type="curve"/>
    </contour>
  </outline>
</glyph>
<glyph name="two-ar" format="2">
  <advance width="435"/>
  <unicode hex="0662"/>
  <outline>
    <contour>
      <point x="147" y="3" type="line"/>
      <point x="147" y="100"/>
      <point x="119" y="447"/>
      <point x="58" y="674" type="curve"/>
      <point x="35" y="668" type="line"/>
      <point x="94" y="447"/>
      <point x="124" y="76"/>
      <point x="124" y="0" type="curve"/>
    </contour>
    <contour>
      <point x="224" y="469" type="curve" smooth="yes"/>
      <point x="330" y="469"/>
      <point x="390" y="509"/>
      <point x="400" y="668" type="curve"/>
      <point x="375" y="672" type="line"/>
      <point x="364" y="518"/>
      <point x="310" y="493"/>
      <point x="225" y="493" type="curve" smooth="yes"/>
      <point x="160" y="493"/>
      <point x="96" y="518"/>
      <point x="66" y="538" type="curve"/>
      <point x="81" y="505" type="line"/>
      <point x="103" y="492"/>
      <point x="162" y="469"/>
    </contour>
  </outline>
</glyph>
<glyph name="three-ar" format="2">
  <advance width="525"/>
  <unicode hex="0663"/>
  <outline>
    <contour>
      <point x="147" y="2" type="line"/>
      <point x="147" y="99"/>
      <point x="119" y="447"/>
      <point x="58" y="674" type="curve"/>
      <point x="35" y="668" type="line"/>
      <point x="94" y="447"/>
      <point x="124" y="76"/>
      <point x="124" y="0" type="curve"/>
    </contour>
    <contour>
      <point x="185" y="433" type="curve" smooth="yes"/>
      <point x="234" y="433"/>
      <point x="269" y="466"/>
      <point x="279" y="514" type="curve"/>
      <point x="270" y="514" type="line"/>
      <point x="274" y="463"/>
      <point x="308" y="437"/>
      <point x="371" y="437" type="curve" smooth="yes"/>
      <point x="457" y="437"/>
      <point x="490" y="486"/>
      <point x="490" y="545" type="curve" smooth="yes"/>
      <point x="490" y="579"/>
      <point x="479" y="630"/>
      <point x="458" y="675" type="curve"/>
      <point x="436" y="666" type="line"/>
      <point x="454" y="624"/>
      <point x="466" y="579"/>
      <point x="466" y="547" type="curve" smooth="yes"/>
      <point x="466" y="509"/>
      <point x="449" y="461"/>
      <point x="369" y="461" type="curve" smooth="yes"/>
      <point x="312" y="461"/>
      <point x="292" y="486"/>
      <point x="292" y="526" type="curve" smooth="yes"/>
      <point x="292" y="544"/>
      <point x="296" y="568"/>
      <point x="312" y="654" type="curve"/>
      <point x="289" y="657" type="line"/>
      <point x="265" y="499"/>
      <point x="242" y="457"/>
      <point x="187" y="457" type="curve" smooth="yes"/>
      <point x="132" y="457"/>
      <point x="99" y="501"/>
      <point x="94" y="520" type="curve" smooth="yes"/>
      <point x="58" y="662" type="line"/>
      <point x="78" y="506" type="line"/>
      <point x="88" y="477"/>
      <point x="127" y="433"/>
    </contour>
  </outline>
</glyph>
<glyph name="four-ar" format="2">
  <advance width="437"/>
  <unicode hex="0664"/>
  <outline>
    <contour>
      <point x="425" y="43" type="line"/>
      <point x="375" y="27"/>
      <point x="336" y="18"/>
      <point x="264" y="18" type="curve" smooth="yes"/>
      <point x="137" y="18"/>
      <point x="85" y="67"/>
      <point x="85" y="136" type="curve" smooth="yes"/>
      <point x="85" y="215"/>
      <point x="173" y="297"/>
      <point x="298" y="356" type="curve"/>
      <point x="295" y="381" type="line"/>
      <point x="215" y="362"/>
      <point x="83" y="367"/>
      <point x="83" y="441" type="curve" smooth="yes"/>
      <point x="83" y="510"/>
      <point x="180" y="615"/>
      <point x="299" y="652" type="curve"/>
      <point x="292" y="674" type="line"/>
      <point x="162" y="632"/>
      <point x="60" y="525"/>
      <point x="60" y="440" type="curve" smooth="yes"/>
      <point x="60" y="366"/>
      <point x="152" y="341"/>
      <point x="239" y="351" type="curve"/>
      <point x="104" y="273"/>
      <point x="61" y="197"/>
      <point x="61" y="134" type="curve" smooth="yes"/>
      <point x="61" y="45"/>
      <point x="130" y="-6"/>
      <point x="264" y="-6" type="curve" smooth="yes"/>
      <point x="330" y="-6"/>
      <point x="381" y="2"/>
      <point x="432" y="22" type="curve"/>
    </contour>
  </outline>
</glyph>
<glyph name="five-ar" format="2">
  <advance width="500"/>
  <unicode hex="0665"/>
  <outline>
    <contour>
      <point x="246" y="0" type="curve" smooth="yes"/>
      <point x="390" y="0"/>
      <point x="430" y="94"/>
      <point x="430" y="221" type="curve" smooth="yes"/>
      <point x="430" y="401"/>
      <point x="349" y="495"/>
      <point x="263" y="495" type="curve" smooth="yes"/>
      <point x="170" y="495"/>
      <point x="70" y="386"/>
      <point x="70" y="209" type="curve" smooth="yes"/>
      <point x="70" y="59"/>
      <point x="129" y="0"/>
    </contour>
    <contour>
      <point x="244" y="23" type="curve" smooth="yes"/>
      <point x="145" y="23"/>
      <point x="93" y="77"/>
      <point x="93" y="202" type="curve" smooth="yes"/>
      <point x="93" y="358"/>
      <point x="172" y="471"/>
      <point x="262" y="471" type="curve" smooth="yes"/>
      <point x="355" y="471"/>
      <point x="407" y="350"/>
      <point x="407" y="214" type="curve" smooth="yes"/>
      <point x="407" y="132"/>
      <point x="386" y="23"/>
    </contour>
  </outline>
</glyph>
<glyph name="six-ar" format="2">
  <advance width="452"/>
  <unicode hex="0666"/>
  <outline>
    <contour>
      <point x="363" y="0" type="curve"/>
      <point x="387" y="5" type="line"/>
      <point x="363" y="97"/>
      <point x="315" y="378"/>
      <point x="320" y="662" type="curve"/>
      <point x="285" y="637" type="line"/>
      <point x="296" y="640" type="line"/>
      <point x="294" y="349"/>
      <point x="346" y="74"/>
    </contour>
    <contour>
      <point x="316" y="636" type="curve"/>
      <point x="320" y="662" type="line"/>
      <point x="258" y="640"/>
      <point x="115" y="640"/>
      <point x="29" y="672" type="curve"/>
      <point x="25" y="648" type="line"/>
      <point x="108" y="617"/>
      <point x="227" y="617"/>
    </contour>
  </outline>
</glyph>
<glyph name="seven-ar" format="2">
  <advance width="527"/>
  <unicode hex="0667"/>
  <outline>
    <contour>
      <point x="251" y="0" type="line"/>
      <point x="275" y="7" type="line"/>
      <point x="316" y="213"/>
      <point x="414" y="478"/>
      <point x="502" y="665" type="curve"/>
      <point x="480" y="675" type="line"/>
      <point x="405" y="513"/>
      <point x="297" y="236"/>
      <point x="259" y="39" type="curve"/>
    </contour>
    <contour>
      <point x="251" y="0" type="curve"/>
      <point x="273" y="13" type="line"/>
      <point x="264" y="38" type="line"/>
      <point x="224" y="204"/>
      <point x="127" y="488"/>
      <point x="47" y="673" type="curve"/>
      <point x="25" y="664" type="line"/>
      <point x="109" y="476"/>
      <point x="199" y="196"/>
    </contour>
  </outline>
</glyph>
<glyph name="eight-ar" format="2">
  <advance width="534"/>
  <unicode hex="0668"/>
  <outline>
    <contour>
      <point x="47" y="4" type="line"/>
      <point x="122" y="165"/>
      <point x="230" y="440"/>
      <point x="268" y="635" type="curve"/>
      <point x="276" y="674" type="line"/>
      <point x="252" y="667" type="line"/>
      <point x="211" y="463"/>
      <point x="113" y="200"/>
      <point x="25" y="14" type="curve"/>
    </contour>
    <contour>
      <point x="487" y="-2" type="curve"/>
      <point x="509" y="7" type="line"/>
      <point x="422" y="196"/>
      <point x="327" y="468"/>
      <point x="276" y="674" type="curve"/>
      <point x="254" y="661" type="line"/>
      <point x="264" y="636" type="line"/>
      <point x="305" y="469"/>
      <point x="404" y="184"/>
    </contour>
  </outline>
</glyph>
<glyph name="nine-ar" format="2">
  <advance width="447"/>
  <unicode hex="0669"/>
  <outline>
    <contour>
      <point x="359" y="0" type="curve"/>
      <point x="382" y="6" type="line"/>
      <point x="357" y="95"/>
      <point x="337" y="245"/>
      <point x="329" y="385" type="curve" smooth="yes"/>
      <point x="321" y="520"/>
      <point x="309" y="675"/>
      <point x="188" y="675" type="curve" smooth="yes"/>
      <point x="101" y="675"/>
      <point x="35" y="603"/>
      <point x="35" y="510" type="curve" smooth="yes"/>
      <point x="35" y="411"/>
      <point x="105" y="353"/>
      <point x="204" y="353" type="curve" smooth="yes"/>
      <point x="240" y="353"/>
      <point x="282" y="358"/>
      <point x="320" y="371" type="curve"/>
      <point x="313" y="393" type="line"/>
      <point x="285" y="384"/>
      <point x="247" y="377"/>
      <point x="210" y="376" type="curve" smooth="yes"/>
      <point x="97" y="376"/>
      <point x="59" y="447"/>
      <point x="59" y="513" type="curve" smooth="yes"/>
      <point x="59" y="589"/>
      <point x="115" y="651"/>
      <point x="186" y="651" type="curve" smooth="yes"/>
      <point x="294" y="651"/>
      <point x="299" y="481"/>
      <point x="305" y="379" type="curve" smooth="yes"/>
      <point x="308" y="334"/>
      <point x="325" y="118"/>
    </contour>
  </outline>
</glyph>
<glyph name="percent-ar" format="2">
  <advance width="471"/>
  <unicode hex="066A"/>
  <outline>
    <contour>
      <point x="92" y="-9" type="line"/>
      <point x="411" y="676" type="line"/>
      <point x="387" y="687" type="line"/>
      <point x="70" y="0" type="line"/>
    </contour>
    <contour>
      <point x="349" y="-9" type="curve"/>
      <point x="390" y="31" type="line"/>
      <point x="378" y="47"/>
      <point x="361" y="64"/>
      <point x="343" y="78" type="curve"/>
      <point x="303" y="35" type="line"/>
      <point x="321" y="20"/>
      <point x="331" y="9"/>
    </contour>
    <contour>
      <point x="142" y="597" type="curve"/>
      <point x="183" y="637" type="line"/>
      <point x="171" y="653"/>
      <point x="154" y="670"/>
      <point x="136" y="684" type="curve"/>
      <point x="96" y="641" type="line"/>
      <point x="114" y="626"/>
      <point x="124" y="615"/>
    </contour>
  </outline>
</glyph>
<glyph name="decimalseparator-ar" format="2">
  <advance width="302"/>
  <unicode hex="066B"/>
  <outline>
    <contour>
      <point x="78" y="-134" type="line"/>
      <point x="105" y="-134" type="line"/>
      <point x="120" y="-109"/>
      <point x="177" y="-6"/>
      <point x="177" y="31" type="curve" smooth="yes"/>
      <point x="177" y="51"/>
      <point x="160" y="66"/>
      <point x="141" y="66" type="curve" smooth="yes"/>
      <point x="120" y="66"/>
      <point x="105" y="49"/>
      <point x="105" y="30" type="curve" smooth="yes"/>
      <point x="105" y="15"/>
      <point x="115" y="3"/>
      <point x="128" y="0" type="curve"/>
    </contour>
  </outline>
</glyph>
<glyph name="thousandseparator-ar" format="2">
  <advance width="245"/>
  <unicode hex="066C"/>
  <outline>
    <contour>
      <point x="86" y="0" type="curve" smooth="yes"/>
      <point x="107" y="0"/>
      <point x="122" y="17"/>
      <point x="122" y="36" type="curve" smooth="yes"/>
      <point x="122" y="51"/>
      <point x="112" y="63"/>
      <point x="99" y="66" type="curve"/>
      <point x="149" y="200" type="line"/>
      <point x="122" y="200" type="line"/>
      <point x="107" y="175"/>
      <point x="50" y="72"/>
      <point x="50" y="35" type="curve" smooth="yes"/>
      <point x="50" y="15"/>
      <point x="67" y="0"/>
    </contour>
  </outline>
</glyph>
<glyph name="asterisk-ar" format="2">
  <advance width="524"/>
  <unicode hex="066D"/>
  <outline>
    <contour>
      <point x="419" y="-1" type="line"/>
      <point x="424" y="3" type="line"/>
      <point x="323" y="194" type="line"/>
      <point x="504" y="279" type="line"/>
      <point x="502" y="287" type="line"/>
      <point x="304" y="267" type="line"/>
      <point x="266" y="458" type="line"/>
      <point x="259" y="458" type="line"/>
      <point x="220" y="266" type="line"/>
      <point x="22" y="287" type="line"/>
      <point x="20" y="279" type="line"/>
      <point x="200" y="192" type="line"/>
      <point x="100" y="3" type="line"/>
      <point x="105" y="-1" type="line"/>
      <point x="262" y="137" type="line"/>
    </contour>
  </outline>
</glyph>
<glyph name="haa-thaana" format="2">
  <advance width="333"/>
  <unicode hex="0780"/>
  <anchor x="59" y="0" name="b.uni07A8"/>
  <anchor x="300" y="414" name="t.uni07A6"/>
  <outline>
    <contour>
      <point x="338" y="408" type="curve"/>
      <point x="319" y="420" type="line"/>
      <point x="252" y="340"/>
      <point x="111" y="174"/>
      <point x="5" y="56" type="curve"/>
      <point x="11" y="50"/>
      <point x="18" y="43"/>
      <point x="23" y="39" type="curve"/>
      <point x="116" y="145"/>
      <point x="277" y="331"/>
    </contour>
  </outline>
</glyph>
<glyph name="shaviyani-thaana" format="2">
  <advance width="476"/>
  <unicode hex="0781"/>
  <anchor x="132" y="0" name="b.uni07A8"/>
  <anchor x="387" y="416" name="t.uni07A6"/>
  <outline>
    <contour>
      <point x="247" y="283" type="line"/>
      <point x="274" y="271"/>
      <point x="302" y="266"/>
      <point x="332" y="266" type="curve" smooth="yes"/>
      <point x="364" y="266"/>
      <point x="407" y="269"/>
      <point x="439" y="318" type="curve" smooth="yes"/>
      <point x="451" y="336"/>
      <point x="469" y="372"/>
      <point x="485" y="408" type="curve"/>
      <point x="465" y="413" type="line"/>
      <point x="458" y="397"/>
      <point x="439" y="360"/>
      <point x="431" y="346" type="curve" smooth="yes"/>
      <point x="413" y="315"/>
      <point x="402" y="305"/>
      <point x="390" y="299" type="curve" smooth="yes"/>
      <point x="378" y="293"/>
      <point x="365" y="288"/>
      <point x="335" y="288" type="curve" smooth="yes"/>
      <point x="300" y="288"/>
      <point x="272" y="297"/>
      <point x="257" y="304" type="curve"/>
    </contour>
    <component base="_part.haa" xOffset="-55"/>
  </outline>
</glyph>
<glyph name="noonu-thaana" format="2">
  <advance width="599"/>
  <unicode hex="0782"/>
  <anchor x="187" y="0" name="b.uni07A8"/>
  <anchor x="435" y="414" name="t.uni07A6"/>
  <outline>
    <contour>
      <point x="252" y="273" type="line"/>
      <point x="269" y="266"/>
      <point x="289" y="263"/>
      <point x="311" y="263" type="curve" smooth="yes"/>
      <point x="346" y="263"/>
      <point x="383" y="268"/>
      <point x="415" y="317" type="curve" smooth="yes"/>
      <point x="427" y="336"/>
      <point x="440" y="359"/>
      <point x="460" y="402" type="curve"/>
      <point x="440" y="408" type="line"/>
      <point x="432" y="390"/>
      <point x="417" y="359"/>
      <point x="407" y="344" type="curve" smooth="yes"/>
      <point x="392" y="321"/>
      <point x="379" y="305"/>
      <point x="368" y="299" type="curve" smooth="yes"/>
      <point x="353" y="290"/>
      <point x="339" y="285"/>
      <point x="313" y="285" type="curve" smooth="yes"/>
      <point x="295" y="285"/>
      <point x="277" y="288"/>
      <point x="260" y="295" type="curve"/>
    </contour>
    <contour>
      <point x="370" y="283" type="line"/>
      <point x="397" y="271"/>
      <point x="425" y="266"/>
      <point x="455" y="266" type="curve" smooth="yes"/>
      <point x="487" y="266"/>
      <point x="530" y="269"/>
      <point x="562" y="318" type="curve" smooth="yes"/>
      <point x="574" y="336"/>
      <point x="592" y="372"/>
      <point x="608" y="408" type="curve"/>
      <point x="588" y="413" type="line"/>
      <point x="581" y="397"/>
      <point x="562" y="360"/>
      <point x="554" y="346" type="curve" smooth="yes"/>
      <point x="536" y="315"/>
      <point x="525" y="305"/>
      <point x="513" y="299" type="curve" smooth="yes"/>
      <point x="501" y="293"/>
      <point x="488" y="288"/>
      <point x="458" y="288" type="curve" smooth="yes"/>
      <point x="423" y="288"/>
      <point x="395" y="297"/>
      <point x="380" y="304" type="curve"/>
    </contour>
    <component base="_part.haa" xOffset="-55"/>
  </outline>
</glyph>
<glyph name="raa-thaana" format="2">
  <advance width="438"/>
  <unicode hex="0783"/>
  <anchor x="125" y="0" name="b.uni07A8"/>
  <anchor x="349" y="415" name="t.uni07A6"/>
  <outline>
    <contour>
      <point x="-42" y="-71" type="curve"/>
      <point x="-38" y="-76"/>
      <point x="-30" y="-83"/>
      <point x="-24" y="-88" type="curve"/>
      <point x="90" y="41"/>
      <point x="203" y="170"/>
      <point x="247" y="222" type="curve" smooth="yes"/>
      <point x="254" y="230"/>
      <point x="254" y="240"/>
      <point x="251" y="244" type="curve"/>
      <point x="248" y="238" type="line"/>
      <point x="287" y="229"/>
      <point x="329" y="222"/>
      <point x="381" y="215" type="curve"/>
      <point x="386" y="238" type="line"/>
      <point x="331" y="244"/>
      <point x="294" y="249"/>
      <point x="260" y="257" type="curve"/>
      <point x="270" y="249" type="line"/>
      <point x="272" y="255"/>
      <point x="280" y="268"/>
      <point x="296" y="286" type="curve" smooth="yes"/>
      <point x="402" y="403" type="line"/>
      <point x="384" y="417" type="line"/>
      <point x="277" y="299" type="line" smooth="yes"/>
      <point x="264" y="284"/>
      <point x="254" y="269"/>
      <point x="254" y="262" type="curve" smooth="yes"/>
      <point x="254" y="259"/>
      <point x="256" y="253"/>
      <point x="261" y="249" type="curve"/>
      <point x="256" y="259" type="line"/>
      <point x="214" y="267"/>
      <point x="159" y="282"/>
      <point x="134" y="289" type="curve"/>
      <point x="132" y="282"/>
      <point x="131" y="274"/>
      <point x="131" y="267" type="curve"/>
      <point x="171" y="256"/>
      <point x="202" y="248"/>
      <point x="241" y="240" type="curve"/>
      <point x="237" y="245" type="line"/>
      <point x="150" y="144"/>
      <point x="42" y="20"/>
    </contour>
  </outline>
</glyph>
<glyph name="baa-thaana" format="2">
  <advance width="528"/>
  <unicode hex="0784"/>
  <anchor x="151" y="0" name="b.uni07A8"/>
  <anchor x="365" y="415" name="t.uni07A6"/>
  <outline>
    <contour>
      <point x="48" y="182" type="curve" smooth="yes"/>
      <point x="48" y="108"/>
      <point x="102" y="40"/>
      <point x="206" y="40" type="curve" smooth="yes"/>
      <point x="361" y="40"/>
      <point x="490" y="179"/>
      <point x="490" y="290" type="curve" smooth="yes"/>
      <point x="490" y="354"/>
      <point x="450" y="414"/>
      <point x="378" y="414" type="curve" smooth="yes"/>
      <point x="319" y="414"/>
      <point x="271" y="380"/>
      <point x="224" y="310" type="curve"/>
      <point x="237" y="297" type="line"/>
      <point x="278" y="356"/>
      <point x="323" y="392"/>
      <point x="375" y="392" type="curve" smooth="yes"/>
      <point x="433" y="392"/>
      <point x="469" y="345"/>
      <point x="469" y="289" type="curve" smooth="yes"/>
      <point x="469" y="195"/>
      <point x="349" y="62"/>
      <point x="205" y="62" type="curve" smooth="yes"/>
      <point x="115" y="62"/>
      <point x="69" y="124"/>
      <point x="69" y="184" type="curve" smooth="yes"/>
      <point x="69" y="244"/>
      <point x="118" y="303"/>
      <point x="187" y="303" type="curve" smooth="yes"/>
      <point x="244" y="303"/>
      <point x="295" y="262"/>
      <point x="295" y="191" type="curve" smooth="yes"/>
      <point x="295" y="133"/>
      <point x="252" y="86"/>
      <point x="204" y="53" type="curve"/>
      <point x="225" y="46" type="line"/>
      <point x="283" y="87"/>
      <point x="316" y="137"/>
      <point x="316" y="195" type="curve" smooth="yes"/>
      <point x="316" y="278"/>
      <point x="254" y="325"/>
      <point x="187" y="325" type="curve" smooth="yes"/>
      <point x="105" y="325"/>
      <point x="48" y="255"/>
    </contour>
  </outline>
</glyph>
<glyph name="lhaviyani-thaana" format="2">
  <advance width="387"/>
  <unicode hex="0785"/>
  <anchor x="92" y="0" name="b.uni07A8"/>
  <anchor x="306" y="414" name="t.uni07A6"/>
  <outline>
    <contour>
      <point x="54" y="57" type="curve"/>
      <point x="59" y="51"/>
      <point x="67" y="43"/>
      <point x="71" y="40" type="curve"/>
      <point x="198" y="183"/>
      <point x="342" y="347"/>
      <point x="392" y="405" type="curve"/>
      <point x="376" y="418" type="line"/>
      <point x="325" y="362"/>
      <point x="265" y="319"/>
      <point x="214" y="319" type="curve" smooth="yes"/>
      <point x="182" y="319"/>
      <point x="165" y="334"/>
      <point x="165" y="365" type="curve" smooth="yes"/>
      <point x="165" y="376"/>
      <point x="167" y="392"/>
      <point x="170" y="411" type="curve"/>
      <point x="148" y="410" type="line"/>
      <point x="146" y="393"/>
      <point x="145" y="379"/>
      <point x="145" y="368" type="curve" smooth="yes"/>
      <point x="145" y="316"/>
      <point x="177" y="297"/>
      <point x="212" y="297" type="curve" smooth="yes"/>
      <point x="246" y="297"/>
      <point x="281" y="316"/>
      <point x="322" y="350" type="curve"/>
      <point x="316" y="352" type="line"/>
      <point x="269" y="295"/>
      <point x="119" y="126"/>
    </contour>
  </outline>
</glyph>
<glyph name="kaafu-thaana" format="2">
  <advance width="421"/>
  <unicode hex="0786"/>
  <anchor x="92" y="0" name="b.uni07A8"/>
  <anchor x="267" y="414" name="t.uni07A6"/>
  <outline>
    <contour>
      <point x="88" y="366" type="line"/>
      <point x="96" y="260"/>
      <point x="97" y="156"/>
      <point x="87" y="47" type="curve"/>
      <point x="110" y="40" type="line"/>
      <point x="196" y="138"/>
      <point x="326" y="288"/>
      <point x="426" y="404" type="curve"/>
      <point x="407" y="419" type="line"/>
      <point x="302" y="292"/>
      <point x="152" y="120"/>
      <point x="104" y="66" type="curve"/>
      <point x="114" y="73" type="line"/>
      <point x="98" y="73" type="line"/>
      <point x="106" y="61" type="line"/>
      <point x="120" y="165"/>
      <point x="116" y="284"/>
      <point x="111" y="372" type="curve"/>
    </contour>
  </outline>
</glyph>
<glyph name="alifu-thaana" format="2">
  <advance width="418"/>
  <unicode hex="0787"/>
  <anchor x="94" y="0" name="b.uni07A8"/>
  <anchor x="294" y="414" name="t.uni07A6"/>
  <outline>
    <contour>
      <point x="5" y="57" type="curve"/>
      <point x="11" y="51"/>
      <point x="16" y="46"/>
      <point x="22" y="40" type="curve"/>
      <point x="100" y="130"/>
      <point x="223" y="273"/>
      <point x="316" y="385" type="curve"/>
      <point x="307" y="382" type="line"/>
      <point x="321" y="382" type="line"/>
      <point x="315" y="383" type="line"/>
      <point x="314" y="297"/>
      <point x="310" y="183"/>
      <point x="303" y="88" type="curve"/>
      <point x="327" y="90" type="line"/>
      <point x="330" y="155"/>
      <point x="335" y="309"/>
      <point x="337" y="407" type="curve"/>
      <point x="314" y="414" type="line"/>
      <point x="193" y="272"/>
      <point x="86" y="149"/>
    </contour>
  </outline>
</glyph>
<glyph name="vaavu-thaana" format="2">
  <advance width="400"/>
  <unicode hex="0788"/>
  <anchor x="125" y="0" name="b.uni07A8"/>
  <anchor x="252" y="414" name="t.uni07A6"/>
  <outline>
    <contour>
      <point x="3" y="-71" type="curve"/>
      <point x="7" y="-76"/>
      <point x="14" y="-82"/>
      <point x="21" y="-87" type="curve"/>
      <point x="113" y="18"/>
      <point x="201" y="120"/>
      <point x="286" y="221" type="curve" smooth="yes"/>
      <point x="342" y="287"/>
      <point x="353" y="310"/>
      <point x="353" y="339" type="curve" smooth="yes"/>
      <point x="353" y="385"/>
      <point x="321" y="414"/>
      <point x="269" y="414" type="curve" smooth="yes"/>
      <point x="184" y="414"/>
      <point x="110" y="342"/>
      <point x="110" y="274" type="curve" smooth="yes"/>
      <point x="110" y="214"/>
      <point x="152" y="172"/>
      <point x="224" y="164" type="curve"/>
      <point x="233" y="183" type="line"/>
      <point x="173" y="191"/>
      <point x="131" y="218"/>
      <point x="131" y="272" type="curve" smooth="yes"/>
      <point x="131" y="337"/>
      <point x="205" y="392"/>
      <point x="270" y="392" type="curve" smooth="yes"/>
      <point x="312" y="392"/>
      <point x="332" y="370"/>
      <point x="332" y="342" type="curve" smooth="yes"/>
      <point x="332" y="315"/>
      <point x="315" y="289"/>
      <point x="269" y="234" type="curve" smooth="yes"/>
      <point x="205" y="158"/>
      <point x="90" y="26"/>
    </contour>
  </outline>
</glyph>
<glyph name="meemu-thaana" format="2">
  <advance width="384"/>
  <unicode hex="0789"/>
  <anchor x="52" y="0" name="b.uni07A8"/>
  <anchor x="242" y="414" name="t.uni07A6"/>
  <outline>
    <contour>
      <point x="72" y="54" type="curve"/>
      <point x="77" y="49"/>
      <point x="83" y="44"/>
      <point x="91" y="39" type="curve"/>
      <point x="199" y="163"/>
      <point x="289" y="268"/>
      <point x="359" y="351" type="curve"/>
      <point x="355" y="371" type="line"/>
      <point x="345" y="380"/>
      <point x="292" y="414"/>
      <point x="211" y="414" type="curve" smooth="yes"/>
      <point x="169" y="414"/>
      <point x="128" y="405"/>
      <point x="88" y="393" type="curve"/>
      <point x="89" y="386"/>
      <point x="90" y="380"/>
      <point x="92" y="374" type="curve"/>
      <point x="95" y="371" type="line"/>
      <point x="134" y="384"/>
      <point x="175" y="392"/>
      <point x="212" y="392" type="curve" smooth="yes"/>
      <point x="263" y="392"/>
      <point x="316" y="373"/>
      <point x="336" y="356" type="curve"/>
      <point x="333" y="368" type="line"/>
      <point x="333" y="345" type="line"/>
      <point x="334" y="357" type="line"/>
      <point x="286" y="299"/>
      <point x="149" y="141"/>
    </contour>
  </outline>
</glyph>
<glyph name="faafu-thaana" format="2">
  <advance width="378"/>
  <unicode hex="078A"/>
  <anchor x="107" y="0" name="b.uni07A8"/>
  <anchor x="208" y="414" name="t.uni07A6"/>
  <outline>
    <contour>
      <point x="-19" y="-71" type="curve"/>
      <point x="-13" y="-76"/>
      <point x="-6" y="-82"/>
      <point x="-1" y="-87" type="curve"/>
      <point x="68" y="-15"/>
      <point x="242" y="181"/>
      <point x="297" y="243" type="curve"/>
      <point x="297" y="248"/>
      <point x="294" y="258"/>
      <point x="290" y="267" type="curve"/>
      <point x="273" y="267"/>
      <point x="217" y="260"/>
      <point x="190" y="256" type="curve"/>
      <point x="194" y="246" type="line"/>
      <point x="229" y="280"/>
      <point x="266" y="320"/>
      <point x="294" y="351" type="curve"/>
      <point x="294" y="357"/>
      <point x="292" y="366"/>
      <point x="290" y="371" type="curve"/>
      <point x="272" y="371"/>
      <point x="233" y="367"/>
      <point x="207" y="362" type="curve"/>
      <point x="210" y="356" type="line"/>
      <point x="236" y="383"/>
      <point x="270" y="421"/>
      <point x="294" y="448" type="curve"/>
      <point x="280" y="462" type="line"/>
      <point x="261" y="440"/>
      <point x="214" y="389"/>
      <point x="189" y="364" type="curve"/>
      <point x="193" y="341" type="line"/>
      <point x="227" y="347"/>
      <point x="266" y="351"/>
      <point x="276" y="351" type="curve"/>
      <point x="281" y="365" type="line"/>
      <point x="262" y="343"/>
      <point x="211" y="291"/>
      <point x="175" y="255" type="curve"/>
      <point x="179" y="235" type="line"/>
      <point x="212" y="240"/>
      <point x="271" y="247"/>
      <point x="280" y="247" type="curve"/>
      <point x="278" y="252" type="line"/>
      <point x="241" y="211"/>
      <point x="76" y="30"/>
    </contour>
  </outline>
</glyph>
<glyph name="dhaalu-thaana" format="2">
  <advance width="459"/>
  <unicode hex="078B"/>
  <anchor x="122" y="0" name="b.uni07A8"/>
  <anchor x="327" y="414" name="t.uni07A6"/>
  <anchor x="257" y="399" name="top"/>
  <outline>
    <contour>
      <point x="-55" y="-69" type="curve"/>
      <point x="-50" y="-75"/>
      <point x="-44" y="-82"/>
      <point x="-39" y="-87" type="curve"/>
      <point x="59" y="24"/>
      <point x="139" y="115"/>
      <point x="172" y="155" type="curve" smooth="yes"/>
      <point x="212" y="204"/>
      <point x="217" y="219"/>
      <point x="217" y="234" type="curve" smooth="yes"/>
      <point x="217" y="250"/>
      <point x="207" y="262"/>
      <point x="190" y="262" type="curve" smooth="yes"/>
      <point x="171" y="262"/>
      <point x="157" y="248"/>
      <point x="157" y="230" type="curve" smooth="yes"/>
      <point x="157" y="214"/>
      <point x="170" y="204"/>
      <point x="187" y="198" type="curve"/>
      <point x="185" y="206" type="line"/>
      <point x="170" y="186"/>
      <point x="151" y="163"/>
      <point x="128" y="136" type="curve" smooth="yes"/>
      <point x="89" y="90"/>
      <point x="-4" y="-13"/>
    </contour>
    <component base="_part.jav" xOffset="-35" yOffset="-23"/>
  </outline>
</glyph>
<glyph name="thaa-thaana" format="2">
  <advance width="445"/>
  <unicode hex="078C"/>
  <anchor x="167" y="0" name="b.uni07A8"/>
  <anchor x="309" y="414" name="t.uni07A6"/>
  <outline>
    <contour>
      <point x="-17" y="-64" type="curve"/>
      <point x="-8" y="-87" type="line"/>
      <point x="90" y="-76"/>
      <point x="173" y="-48"/>
      <point x="209" y="15" type="curve"/>
      <point x="211" y="21"/>
      <point x="212" y="31"/>
      <point x="212" y="33" type="curve" smooth="yes"/>
      <point x="212" y="63"/>
      <point x="175" y="137"/>
      <point x="102" y="192" type="curve"/>
      <point x="109" y="176" type="line"/>
      <point x="195" y="272"/>
      <point x="217" y="296"/>
      <point x="258" y="338" type="curve" smooth="yes"/>
      <point x="295" y="375"/>
      <point x="329" y="392"/>
      <point x="355" y="392" type="curve" smooth="yes"/>
      <point x="380" y="392"/>
      <point x="400" y="376"/>
      <point x="400" y="347" type="curve" smooth="yes"/>
      <point x="400" y="290"/>
      <point x="342" y="207"/>
      <point x="282" y="207" type="curve" smooth="yes"/>
      <point x="242" y="207"/>
      <point x="218" y="248"/>
      <point x="218" y="306" type="curve"/>
      <point x="200" y="302" type="line"/>
      <point x="200" y="224"/>
      <point x="234" y="185"/>
      <point x="284" y="185" type="curve" smooth="yes"/>
      <point x="357" y="185"/>
      <point x="421" y="280"/>
      <point x="421" y="343" type="curve" smooth="yes"/>
      <point x="421" y="390"/>
      <point x="392" y="414"/>
      <point x="357" y="414" type="curve" smooth="yes"/>
      <point x="325" y="414"/>
      <point x="286" y="397"/>
      <point x="236" y="345" type="curve" smooth="yes"/>
      <point x="183" y="290"/>
      <point x="142" y="246"/>
      <point x="95" y="194" type="curve"/>
      <point x="91" y="172" type="line"/>
      <point x="144" y="132"/>
      <point x="183" y="78"/>
      <point x="198" y="20" type="curve"/>
      <point x="201" y="36" type="line"/>
      <point x="158" y="-34"/>
      <point x="77" y="-54"/>
    </contour>
  </outline>
</glyph>
<glyph name="laamu-thaana" format="2">
  <advance width="386"/>
  <unicode hex="078D"/>
  <anchor x="156" y="0" name="b.uni07A8"/>
  <anchor x="238" y="414" name="t.uni07A6"/>
  <outline>
    <contour>
      <point x="9" y="-71" type="curve"/>
      <point x="15" y="-77"/>
      <point x="23" y="-84"/>
      <point x="27" y="-87" type="curve"/>
      <point x="86" y="-22"/>
      <point x="246" y="164"/>
      <point x="318" y="252" type="curve"/>
      <point x="318" y="257"/>
      <point x="317" y="267"/>
      <point x="314" y="275" type="curve"/>
      <point x="279" y="275"/>
      <point x="192" y="269"/>
      <point x="137" y="264" type="curve"/>
      <point x="149" y="256" type="line"/>
      <point x="179" y="287"/>
      <point x="251" y="372"/>
      <point x="281" y="408" type="curve"/>
      <point x="267" y="422" type="line"/>
      <point x="237" y="388"/>
      <point x="169" y="311"/>
      <point x="125" y="263" type="curve"/>
      <point x="129" y="242" type="line"/>
      <point x="186" y="247"/>
      <point x="279" y="253"/>
      <point x="300" y="253" type="curve"/>
      <point x="297" y="259" type="line"/>
      <point x="258" y="213"/>
      <point x="94" y="23"/>
    </contour>
  </outline>
</glyph>
<glyph name="gaafu-thaana" format="2">
  <advance width="412"/>
  <unicode hex="078E"/>
  <anchor x="100" y="0" name="b.uni07A8"/>
  <anchor x="258" y="414" name="t.uni07A6"/>
  <outline>
    <contour>
      <point x="-2" y="66" type="curve"/>
      <point x="48" y="47"/>
      <point x="93" y="40"/>
      <point x="125" y="40" type="curve" smooth="yes"/>
      <point x="201" y="40"/>
      <point x="276" y="62"/>
      <point x="310" y="100" type="curve"/>
      <point x="312" y="105"/>
      <point x="314" y="116"/>
      <point x="314" y="120" type="curve" smooth="yes"/>
      <point x="314" y="159"/>
      <point x="259" y="247"/>
      <point x="177" y="307" type="curve"/>
      <point x="180" y="299" type="line"/>
      <point x="217" y="341"/>
      <point x="251" y="380"/>
      <point x="281" y="415" type="curve"/>
      <point x="267" y="427" type="line"/>
      <point x="231" y="385"/>
      <point x="197" y="347"/>
      <point x="164" y="312" type="curve"/>
      <point x="160" y="294" type="line"/>
      <point x="215" y="250"/>
      <point x="277" y="186"/>
      <point x="300" y="110" type="curve"/>
      <point x="306" y="122" type="line"/>
      <point x="269" y="82"/>
      <point x="198" y="62"/>
      <point x="128" y="62" type="curve" smooth="yes"/>
      <point x="99" y="62"/>
      <point x="55" y="68"/>
      <point x="5" y="89" type="curve"/>
      <point x="2" y="81"/>
      <point x="0" y="75"/>
    </contour>
  </outline>
</glyph>
<glyph name="gnaviyani-thaana" format="2">
  <advance width="534"/>
  <unicode hex="078F"/>
  <anchor x="96" y="-40" name="b.uni07A8"/>
  <anchor x="423" y="414" name="t.uni07A6"/>
  <outline>
    <contour>
      <point x="24" y="45" type="curve" smooth="yes"/>
      <point x="24" y="-37"/>
      <point x="86" y="-87"/>
      <point x="183" y="-87" type="curve" smooth="yes"/>
      <point x="217" y="-87"/>
      <point x="254" y="-81"/>
      <point x="292" y="-70" type="curve"/>
      <point x="291" y="-61"/>
      <point x="290" y="-54"/>
      <point x="289" y="-47" type="curve"/>
      <point x="250" y="-59"/>
      <point x="211" y="-65"/>
      <point x="183" y="-65" type="curve" smooth="yes"/>
      <point x="102" y="-65"/>
      <point x="45" y="-26"/>
      <point x="45" y="45" type="curve" smooth="yes"/>
      <point x="45" y="118"/>
      <point x="114" y="192"/>
      <point x="208" y="271" type="curve"/>
      <point x="195" y="284" type="line"/>
      <point x="106" y="215"/>
      <point x="24" y="129"/>
    </contour>
    <contour>
      <point x="186" y="273" type="line"/>
      <point x="203" y="266"/>
      <point x="223" y="263"/>
      <point x="245" y="263" type="curve" smooth="yes"/>
      <point x="280" y="263"/>
      <point x="317" y="268"/>
      <point x="349" y="317" type="curve" smooth="yes"/>
      <point x="361" y="336"/>
      <point x="374" y="359"/>
      <point x="394" y="402" type="curve"/>
      <point x="374" y="408" type="line"/>
      <point x="366" y="390"/>
      <point x="351" y="360"/>
      <point x="341" y="344" type="curve" smooth="yes"/>
      <point x="326" y="321"/>
      <point x="313" y="305"/>
      <point x="302" y="299" type="curve" smooth="yes"/>
      <point x="287" y="290"/>
      <point x="273" y="285"/>
      <point x="247" y="285" type="curve" smooth="yes"/>
      <point x="229" y="285"/>
      <point x="211" y="288"/>
      <point x="194" y="295" type="curve"/>
    </contour>
    <contour>
      <point x="304" y="283" type="line"/>
      <point x="331" y="271"/>
      <point x="359" y="266"/>
      <point x="389" y="266" type="curve" smooth="yes"/>
      <point x="421" y="266"/>
      <point x="464" y="268"/>
      <point x="496" y="318" type="curve" smooth="yes"/>
      <point x="508" y="337"/>
      <point x="527" y="373"/>
      <point x="543" y="410" type="curve"/>
      <point x="523" y="415" type="line"/>
      <point x="516" y="399"/>
      <point x="496" y="361"/>
      <point x="488" y="346" type="curve" smooth="yes"/>
      <point x="471" y="314"/>
      <point x="459" y="305"/>
      <point x="447" y="299" type="curve" smooth="yes"/>
      <point x="435" y="293"/>
      <point x="422" y="288"/>
      <point x="392" y="288" type="curve" smooth="yes"/>
      <point x="357" y="288"/>
      <point x="329" y="297"/>
      <point x="314" y="304" type="curve"/>
    </contour>
    <contour>
      <point x="169" y="294" type="curve" smooth="yes"/>
      <point x="169" y="277"/>
      <point x="186" y="271"/>
      <point x="200" y="267" type="curve"/>
      <point x="211" y="276"/>
      <point x="218" y="286"/>
      <point x="218" y="297" type="curve" smooth="yes"/>
      <point x="218" y="309"/>
      <point x="209" y="317"/>
      <point x="194" y="317" type="curve" smooth="yes"/>
      <point x="181" y="317"/>
      <point x="169" y="309"/>
    </contour>
  </outline>
</glyph>
<glyph name="seenu-thaana" format="2">
  <advance width="728"/>
  <unicode hex="0790"/>
  <anchor x="284" y="0" name="b.uni07A8"/>
  <anchor x="451" y="414" name="t.uni07A6"/>
  <outline>
    <contour>
      <point x="175" y="269" type="line"/>
      <point x="217" y="264"/>
      <point x="264" y="262"/>
      <point x="333" y="262" type="curve" smooth="yes"/>
      <point x="471" y="262"/>
      <point x="591" y="271"/>
      <point x="651" y="295" type="curve" smooth="yes"/>
      <point x="676" y="305"/>
      <point x="691" y="319"/>
      <point x="699" y="332" type="curve" smooth="yes"/>
      <point x="710" y="349"/>
      <point x="735" y="403"/>
      <point x="739" y="414" type="curve"/>
      <point x="718" y="419" type="line"/>
      <point x="709" y="397"/>
      <point x="698" y="374"/>
      <point x="691" y="362" type="curve" smooth="yes"/>
      <point x="674" y="331"/>
      <point x="661" y="321"/>
      <point x="629" y="311" type="curve" smooth="yes"/>
      <point x="586" y="298"/>
      <point x="503" y="284"/>
      <point x="334" y="284" type="curve" smooth="yes"/>
      <point x="264" y="284"/>
      <point x="225" y="285"/>
      <point x="183" y="291" type="curve"/>
    </contour>
    <contour>
      <point x="64" y="160" type="curve"/>
      <point x="70" y="154"/>
      <point x="76" y="150"/>
      <point x="84" y="146" type="curve"/>
      <point x="127" y="199"/>
      <point x="152" y="231"/>
      <point x="164" y="247" type="curve" smooth="yes"/>
      <point x="183" y="273"/>
      <point x="188" y="285"/>
      <point x="188" y="301" type="curve" smooth="yes"/>
      <point x="188" y="318"/>
      <point x="179" y="328"/>
      <point x="164" y="328" type="curve" smooth="yes"/>
      <point x="148" y="328"/>
      <point x="135" y="316"/>
      <point x="135" y="300" type="curve" smooth="yes"/>
      <point x="135" y="283"/>
      <point x="153" y="275"/>
      <point x="170" y="269" type="curve"/>
      <point x="160" y="279" type="line"/>
      <point x="136" y="246"/>
      <point x="105" y="208"/>
    </contour>
  </outline>
</glyph>
<glyph name="daviyani-thaana" format="2">
  <advance width="342"/>
  <unicode hex="0791"/>
  <anchor x="95" y="0" name="b.uni07A8"/>
  <anchor x="221" y="414" name="t.uni07A6"/>
  <outline>
    <contour>
      <point x="57" y="63" type="curve"/>
      <point x="65" y="43" type="line"/>
      <point x="128" y="15"/>
      <point x="179" y="-7"/>
      <point x="244" y="-35" type="curve"/>
      <point x="253" y="-13" type="line"/>
      <point x="185" y="16"/>
      <point x="134" y="38"/>
      <point x="71" y="66" type="curve"/>
      <point x="79" y="54" type="line"/>
      <point x="150" y="122"/>
      <point x="203" y="176"/>
      <point x="218" y="196" type="curve"/>
      <point x="216" y="206"/>
      <point x="214" y="212"/>
      <point x="212" y="216" type="curve"/>
      <point x="196" y="224"/>
      <point x="149" y="240"/>
      <point x="79" y="263" type="curve"/>
      <point x="98" y="252" type="line"/>
      <point x="148" y="310"/>
      <point x="184" y="352"/>
      <point x="228" y="404" type="curve"/>
      <point x="212" y="417" type="line"/>
      <point x="174" y="372"/>
      <point x="124" y="315"/>
      <point x="73" y="258" type="curve"/>
      <point x="80" y="240" type="line"/>
      <point x="112" y="230"/>
      <point x="180" y="207"/>
      <point x="208" y="193" type="curve"/>
      <point x="202" y="211" type="line"/>
      <point x="164" y="166"/>
      <point x="105" y="109"/>
    </contour>
  </outline>
</glyph>
<glyph name="zaviyani-thaana" format="2">
  <advance width="414"/>
  <unicode hex="0792"/>
  <anchor x="125" y="-40" name="b.uni07A8"/>
  <anchor x="295" y="414" name="t.uni07A6"/>
  <outline>
    <contour>
      <point x="51" y="45" type="curve" smooth="yes"/>
      <point x="51" y="-38"/>
      <point x="114" y="-87"/>
      <point x="210" y="-87" type="curve" smooth="yes"/>
      <point x="240" y="-87"/>
      <point x="278" y="-83"/>
      <point x="319" y="-72" type="curve"/>
      <point x="318" y="-62"/>
      <point x="317" y="-55"/>
      <point x="316" y="-49" type="curve"/>
      <point x="277" y="-59"/>
      <point x="240" y="-65"/>
      <point x="210" y="-65" type="curve" smooth="yes"/>
      <point x="129" y="-65"/>
      <point x="72" y="-26"/>
      <point x="72" y="45" type="curve" smooth="yes"/>
      <point x="72" y="113"/>
      <point x="128" y="181"/>
      <point x="201" y="252" type="curve"/>
      <point x="183" y="264" type="line"/>
      <point x="112" y="197"/>
      <point x="51" y="122"/>
    </contour>
    <contour>
      <point x="86" y="285" type="curve"/>
      <point x="139" y="264"/>
      <point x="233" y="234"/>
      <point x="321" y="216" type="curve"/>
      <point x="326" y="237" type="line"/>
      <point x="274" y="248"/>
      <point x="239" y="257"/>
      <point x="206" y="266" type="curve"/>
      <point x="211" y="256" type="line"/>
      <point x="215" y="265"/>
      <point x="221" y="274"/>
      <point x="238" y="290" type="curve" smooth="yes"/>
      <point x="356" y="401" type="line"/>
      <point x="339" y="415" type="line"/>
      <point x="224" y="307" type="line" smooth="yes"/>
      <point x="202" y="286"/>
      <point x="197" y="281"/>
      <point x="196" y="270" type="curve" smooth="yes"/>
      <point x="196" y="265"/>
      <point x="198" y="263"/>
      <point x="202" y="259" type="curve"/>
      <point x="202" y="267" type="line"/>
      <point x="168" y="278"/>
      <point x="129" y="291"/>
      <point x="90" y="307" type="curve"/>
      <point x="87" y="299"/>
      <point x="86" y="291"/>
    </contour>
  </outline>
</glyph>
<glyph name="taviyani-thaana" format="2">
  <advance width="480"/>
  <unicode hex="0793"/>
  <anchor x="108" y="-40" name="b.uni07A8"/>
  <anchor x="321" y="414" name="t.uni07A6"/>
  <outline>
    <contour>
      <point x="32" y="34" type="curve" smooth="yes"/>
      <point x="32" y="-41"/>
      <point x="98" y="-87"/>
      <point x="197" y="-87" type="curve" smooth="yes"/>
      <point x="231" y="-87"/>
      <point x="266" y="-82"/>
      <point x="307" y="-71" type="curve"/>
      <point x="306" y="-61"/>
      <point x="304" y="-52"/>
      <point x="303" y="-48" type="curve"/>
      <point x="265" y="-59"/>
      <point x="231" y="-65"/>
      <point x="197" y="-65" type="curve" smooth="yes"/>
      <point x="112" y="-65"/>
      <point x="53" y="-28"/>
      <point x="53" y="35" type="curve" smooth="yes"/>
      <point x="53" y="83"/>
      <point x="99" y="134"/>
      <point x="204" y="174" type="curve"/>
      <point x="182" y="186" type="line"/>
      <point x="84" y="147"/>
      <point x="32" y="93"/>
    </contour>
    <contour>
      <point x="98" y="254" type="curve" smooth="yes"/>
      <point x="98" y="209"/>
      <point x="135" y="171"/>
      <point x="206" y="171" type="curve" smooth="yes"/>
      <point x="343" y="171"/>
      <point x="429" y="260"/>
      <point x="429" y="331" type="curve" smooth="yes"/>
      <point x="429" y="375"/>
      <point x="399" y="414"/>
      <point x="347" y="414" type="curve" smooth="yes"/>
      <point x="301" y="414"/>
      <point x="265" y="387"/>
      <point x="232" y="340" type="curve"/>
      <point x="246" y="332" type="line"/>
      <point x="274" y="367"/>
      <point x="304" y="392"/>
      <point x="344" y="392" type="curve" smooth="yes"/>
      <point x="383" y="392"/>
      <point x="407" y="365"/>
      <point x="407" y="331" type="curve" smooth="yes"/>
      <point x="407" y="273"/>
      <point x="329" y="192"/>
      <point x="207" y="192" type="curve" smooth="yes"/>
      <point x="150" y="192"/>
      <point x="120" y="224"/>
      <point x="120" y="255" type="curve" smooth="yes"/>
      <point x="120" y="292"/>
      <point x="160" y="330"/>
      <point x="208" y="330" type="curve" smooth="yes"/>
      <point x="247" y="330"/>
      <point x="275" y="307"/>
      <point x="275" y="274" type="curve" smooth="yes"/>
      <point x="275" y="238"/>
      <point x="247" y="204"/>
      <point x="191" y="188" type="curve"/>
      <point x="208" y="179" type="line"/>
      <point x="271" y="198"/>
      <point x="296" y="237"/>
      <point x="296" y="274" type="curve" smooth="yes"/>
      <point x="296" y="321"/>
      <point x="257" y="352"/>
      <point x="207" y="352" type="curve" smooth="yes"/>
      <point x="145" y="352"/>
      <point x="98" y="304"/>
    </contour>
  </outline>
</glyph>
<glyph name="yaa-thaana" format="2">
  <advance width="547"/>
  <unicode hex="0794"/>
  <anchor x="136" y="0" name="b.uni07A8"/>
  <anchor x="410" y="414" name="t.uni07A6"/>
  <outline>
    <contour>
      <point x="255" y="298" type="curve"/>
      <point x="258" y="276" type="line"/>
      <point x="351" y="291"/>
      <point x="444" y="345"/>
      <point x="493" y="397" type="curve"/>
      <point x="488" y="399" type="line"/>
      <point x="460" y="313"/>
      <point x="429" y="220"/>
      <point x="373" y="95" type="curve"/>
      <point x="398" y="90" type="line"/>
      <point x="431" y="171"/>
      <point x="481" y="295"/>
      <point x="510" y="411" type="curve"/>
      <point x="489" y="421" type="line"/>
      <point x="454" y="381"/>
      <point x="368" y="317"/>
    </contour>
    <component base="_part.haa" xOffset="-55"/>
  </outline>
</glyph>
<glyph name="javiyani-thaana" format="2">
  <advance width="429"/>
  <unicode hex="0796"/>
  <anchor x="114" y="-40" name="b.uni07A8"/>
  <anchor x="293" y="414" name="t.uni07A6"/>
  <outline>
    <contour>
      <point x="34" y="45" type="curve" smooth="yes"/>
      <point x="34" y="-37"/>
      <point x="96" y="-87"/>
      <point x="192" y="-87" type="curve" smooth="yes"/>
      <point x="223" y="-87"/>
      <point x="262" y="-82"/>
      <point x="302" y="-72" type="curve"/>
      <point x="301" y="-61"/>
      <point x="299" y="-53"/>
      <point x="298" y="-49" type="curve"/>
      <point x="260" y="-59"/>
      <point x="224" y="-65"/>
      <point x="192" y="-65" type="curve" smooth="yes"/>
      <point x="111" y="-65"/>
      <point x="54" y="-26"/>
      <point x="54" y="46" type="curve" smooth="yes"/>
      <point x="54" y="103"/>
      <point x="96" y="160"/>
      <point x="161" y="220" type="curve"/>
      <point x="147" y="234" type="line"/>
      <point x="83" y="175"/>
      <point x="34" y="112"/>
    </contour>
    <contour>
      <point x="165" y="218" type="curve"/>
      <point x="175" y="234"/>
      <point x="178" y="243"/>
      <point x="178" y="256" type="curve" smooth="yes"/>
      <point x="178" y="272"/>
      <point x="168" y="284"/>
      <point x="151" y="284" type="curve" smooth="yes"/>
      <point x="132" y="284"/>
      <point x="118" y="270"/>
      <point x="118" y="252" type="curve" smooth="yes"/>
      <point x="118" y="231"/>
      <point x="140" y="221"/>
    </contour>
    <component base="_part.jav" xOffset="-75"/>
  </outline>
</glyph>
<glyph name="chaviyani-thaana" format="2">
  <advance width="449"/>
  <unicode hex="0797"/>
  <anchor x="172" y="0" name="b.uni07A8"/>
  <anchor x="214" y="414" name="t.uni07A6"/>
  <outline>
    <contour>
      <point x="233" y="340" type="line"/>
      <point x="258" y="340" type="line"/>
      <point x="455" y="530" type="line"/>
      <point x="439" y="546" type="line"/>
    </contour>
    <component base="thaa-thaana"/>
  </outline>
</glyph>
<glyph name="ttaa-thaana" format="2">
  <advance width="475"/>
  <unicode hex="0798"/>
  <anchor x="182" y="0" name="b.uni07A8"/>
  <anchor x="367" y="414" name="t.uni07A6"/>
  <outline>
    <contour>
      <point x="188" y="347" type="curve" smooth="yes"/>
      <point x="199" y="353"/>
      <point x="204" y="364"/>
      <point x="194" y="382" type="curve" smooth="yes"/>
      <point x="186" y="396"/>
      <point x="177" y="397"/>
      <point x="160" y="387" type="curve" smooth="yes"/>
      <point x="150" y="381"/>
      <point x="140" y="370"/>
      <point x="156" y="350" type="curve" smooth="yes"/>
      <point x="165" y="339"/>
      <point x="172" y="337"/>
    </contour>
    <contour>
      <point x="186" y="464" type="curve" smooth="yes"/>
      <point x="197" y="471"/>
      <point x="203" y="483"/>
      <point x="192" y="500" type="curve" smooth="yes"/>
      <point x="183" y="514"/>
      <point x="175" y="515"/>
      <point x="158" y="505" type="curve" smooth="yes"/>
      <point x="148" y="499"/>
      <point x="138" y="488"/>
      <point x="154" y="468" type="curve" smooth="yes"/>
      <point x="162" y="457"/>
      <point x="170" y="455"/>
    </contour>
    <contour>
      <point x="289" y="430" type="curve" smooth="yes"/>
      <point x="300" y="437"/>
      <point x="307" y="449"/>
      <point x="296" y="466" type="curve" smooth="yes"/>
      <point x="287" y="480"/>
      <point x="278" y="481"/>
      <point x="261" y="471" type="curve" smooth="yes"/>
      <point x="252" y="464"/>
      <point x="242" y="453"/>
      <point x="257" y="434" type="curve" smooth="yes"/>
      <point x="266" y="423"/>
      <point x="274" y="420"/>
    </contour>
    <component base="thaa-thaana" xOffset="30"/>
  </outline>
</glyph>
<glyph name="sheenu-thaana" format="2">
  <advance width="728"/>
  <unicode hex="079D"/>
  <anchor x="322" y="0" name="b.uni07A8"/>
  <anchor x="456" y="414" name="t.uni07A6"/>
  <outline>
    <contour>
      <point x="372" y="349" type="curve" smooth="yes"/>
      <point x="389" y="349"/>
      <point x="397" y="357"/>
      <point x="397" y="374" type="curve" smooth="yes"/>
      <point x="397" y="394"/>
      <point x="387" y="399"/>
      <point x="368" y="399" type="curve" smooth="yes"/>
      <point x="350" y="399"/>
      <point x="343" y="388"/>
      <point x="343" y="369" type="curve" smooth="yes"/>
      <point x="343" y="353"/>
      <point x="356" y="349"/>
    </contour>
    <contour>
      <point x="433" y="448" type="curve" smooth="yes"/>
      <point x="449" y="448"/>
      <point x="457" y="454"/>
      <point x="457" y="473" type="curve" smooth="yes"/>
      <point x="457" y="494"/>
      <point x="447" y="498"/>
      <point x="429" y="498" type="curve" smooth="yes"/>
      <point x="410" y="498"/>
      <point x="403" y="487"/>
      <point x="403" y="468" type="curve" smooth="yes"/>
      <point x="403" y="452"/>
      <point x="416" y="448"/>
    </contour>
    <contour>
      <point x="502" y="353" type="curve" smooth="yes"/>
      <point x="517" y="353"/>
      <point x="526" y="360"/>
      <point x="526" y="379" type="curve" smooth="yes"/>
      <point x="526" y="399"/>
      <point x="516" y="403"/>
      <point x="499" y="403" type="curve" smooth="yes"/>
      <point x="479" y="403"/>
      <point x="471" y="393"/>
      <point x="471" y="373" type="curve" smooth="yes"/>
      <point x="471" y="358"/>
      <point x="486" y="353"/>
    </contour>
    <component base="seenu-thaana"/>
  </outline>
</glyph>
<glyph name="qaafu-thaana" format="2">
  <advance width="453"/>
  <unicode hex="07A4"/>
  <anchor x="144" y="0" name="b.uni07A8"/>
  <anchor x="354" y="414" name="t.uni07A6"/>
  <outline>
    <contour>
      <point x="166" y="363" type="curve" smooth="yes"/>
      <point x="179" y="374"/>
      <point x="179" y="386"/>
      <point x="167" y="399" type="curve" smooth="yes"/>
      <point x="156" y="412"/>
      <point x="142" y="411"/>
      <point x="130" y="398" type="curve" smooth="yes"/>
      <point x="117" y="387"/>
      <point x="117" y="374"/>
      <point x="129" y="361" type="curve" smooth="yes"/>
      <point x="140" y="348"/>
      <point x="154" y="350"/>
    </contour>
    <contour>
      <point x="244" y="449" type="curve" smooth="yes"/>
      <point x="257" y="461"/>
      <point x="257" y="472"/>
      <point x="245" y="485" type="curve" smooth="yes"/>
      <point x="233" y="499"/>
      <point x="220" y="496"/>
      <point x="208" y="484" type="curve" smooth="yes"/>
      <point x="195" y="472"/>
      <point x="195" y="461"/>
      <point x="207" y="448" type="curve" smooth="yes"/>
      <point x="219" y="434"/>
      <point x="232" y="437"/>
    </contour>
    <component base="gaafu-thaana" xOffset="41"/>
  </outline>
</glyph>
<glyph name="abafili-thaana" format="2">
  <unicode hex="07A6"/>
  <anchor x="163" y="414" name="_t.uni07A6"/>
  <outline>
    <contour>
      <point x="293" y="699" type="curve"/>
      <point x="274" y="711" type="line"/>
      <point x="234" y="655"/>
      <point x="187" y="603"/>
      <point x="149" y="573" type="curve"/>
      <point x="155" y="567"/>
      <point x="161" y="561"/>
      <point x="167" y="557" type="curve"/>
      <point x="207" y="591"/>
      <point x="267" y="661"/>
    </contour>
  </outline>
</glyph>
<glyph name="aabaafili-thaana" format="2">
  <unicode hex="07A7"/>
  <anchor x="175" y="414" name="_t.uni07A6"/>
  <outline>
    <contour>
      <point x="335" y="702" type="curve"/>
      <point x="316" y="713" type="line"/>
      <point x="278" y="657"/>
      <point x="234" y="603"/>
      <point x="198" y="572" type="curve"/>
      <point x="204" y="566"/>
      <point x="210" y="561"/>
      <point x="216" y="557" type="curve"/>
      <point x="254" y="592"/>
      <point x="311" y="663"/>
    </contour>
    <contour>
      <point x="247" y="711" type="curve"/>
      <point x="228" y="723" type="line"/>
      <point x="188" y="668"/>
      <point x="142" y="617"/>
      <point x="107" y="587" type="curve"/>
      <point x="113" y="581"/>
      <point x="119" y="575"/>
      <point x="125" y="571" type="curve"/>
      <point x="162" y="604"/>
      <point x="222" y="674"/>
    </contour>
  </outline>
</glyph>
<glyph name="ibifili-thaana" format="2">
  <unicode hex="07A8"/>
  <anchor x="106" y="0" name="_b.uni07A8"/>
  <outline>
    <contour>
      <point x="187" y="-113" type="curve"/>
      <point x="168" y="-101" type="line"/>
      <point x="128" y="-157"/>
      <point x="81" y="-209"/>
      <point x="43" y="-239" type="curve"/>
      <point x="49" y="-245"/>
      <point x="55" y="-251"/>
      <point x="61" y="-255" type="curve"/>
      <point x="101" y="-221"/>
      <point x="161" y="-151"/>
    </contour>
  </outline>
</glyph>
<glyph name="eebeefili-thaana" format="2">
  <unicode hex="07A9"/>
  <anchor x="145" y="0" name="_b.uni07A8"/>
  <outline>
    <contour>
      <point x="177" y="-116" type="curve"/>
      <point x="158" y="-104" type="line"/>
      <point x="118" y="-159"/>
      <point x="72" y="-210"/>
      <point x="37" y="-240" type="curve"/>
      <point x="43" y="-246"/>
      <point x="49" y="-252"/>
      <point x="55" y="-256" type="curve"/>
      <point x="92" y="-223"/>
      <point x="152" y="-153"/>
    </contour>
    <contour>
      <point x="265" y="-125" type="curve"/>
      <point x="246" y="-114" type="line"/>
      <point x="208" y="-170"/>
      <point x="164" y="-224"/>
      <point x="128" y="-255" type="curve"/>
      <point x="134" y="-261"/>
      <point x="140" y="-266"/>
      <point x="146" y="-270" type="curve"/>
      <point x="184" y="-235"/>
      <point x="241" y="-164"/>
    </contour>
  </outline>
</glyph>
<glyph name="ebefili-thaana" format="2">
  <unicode hex="07AC"/>
  <anchor x="137" y="414" name="_t.uni07A6"/>
  <outline>
    <contour>
      <point x="101" y="575" type="line"/>
      <point x="101" y="601" type="line"/>
      <point x="100" y="586" type="line"/>
      <point x="122" y="635"/>
      <point x="170" y="679"/>
      <point x="217" y="708" type="curve"/>
      <point x="214" y="715"/>
      <point x="211" y="721"/>
      <point x="208" y="727" type="curve"/>
      <point x="128" y="676"/>
      <point x="94" y="614"/>
      <point x="87" y="598" type="curve" smooth="yes"/>
      <point x="84" y="591"/>
      <point x="83" y="582"/>
      <point x="83" y="578" type="curve" smooth="yes"/>
      <point x="83" y="562"/>
      <point x="125" y="543"/>
      <point x="159" y="543" type="curve" smooth="yes"/>
      <point x="178" y="543"/>
      <point x="194" y="546"/>
      <point x="213" y="555" type="curve"/>
      <point x="213" y="560"/>
      <point x="213" y="567"/>
      <point x="213" y="573" type="curve"/>
      <point x="209" y="577" type="line"/>
      <point x="190" y="568"/>
      <point x="174" y="565"/>
      <point x="162" y="565" type="curve" smooth="yes"/>
      <point x="138" y="565"/>
      <point x="113" y="574"/>
      <point x="98" y="588" type="curve"/>
    </contour>
  </outline>
</glyph>
<glyph name="obofili-thaana" format="2">
  <unicode hex="07AE"/>
  <anchor x="240" y="414" name="_t.uni07A6"/>
  <outline>
    <contour>
      <point x="247" y="575" type="curve"/>
      <point x="261" y="554"/>
      <point x="293" y="541"/>
      <point x="323" y="541" type="curve" smooth="yes"/>
      <point x="341" y="541"/>
      <point x="360" y="544"/>
      <point x="381" y="552" type="curve"/>
      <point x="381" y="558"/>
      <point x="381" y="565"/>
      <point x="381" y="571" type="curve"/>
      <point x="379" y="575" type="line"/>
      <point x="356" y="566"/>
      <point x="336" y="563"/>
      <point x="320" y="563" type="curve" smooth="yes"/>
      <point x="295" y="563"/>
      <point x="267" y="573"/>
      <point x="252" y="595" type="curve"/>
      <point x="260" y="582" type="line"/>
      <point x="283" y="639"/>
      <point x="340" y="688"/>
      <point x="396" y="720" type="curve"/>
      <point x="393" y="728"/>
      <point x="391" y="732"/>
      <point x="387" y="739" type="curve"/>
      <point x="294" y="683"/>
      <point x="259" y="617"/>
      <point x="251" y="599" type="curve" smooth="yes"/>
      <point x="249" y="595"/>
      <point x="247" y="581"/>
    </contour>
    <contour>
      <point x="158" y="545" type="curve"/>
      <point x="161" y="537"/>
      <point x="163" y="533"/>
      <point x="167" y="526" type="curve"/>
      <point x="262" y="582"/>
      <point x="298" y="648"/>
      <point x="306" y="666" type="curve" smooth="yes"/>
      <point x="308" y="670"/>
      <point x="310" y="684"/>
      <point x="310" y="690" type="curve"/>
      <point x="297" y="711"/>
      <point x="266" y="724"/>
      <point x="237" y="724" type="curve" smooth="yes"/>
      <point x="219" y="724"/>
      <point x="200" y="721"/>
      <point x="179" y="713" type="curve"/>
      <point x="179" y="707"/>
      <point x="179" y="700"/>
      <point x="179" y="694" type="curve"/>
      <point x="181" y="690" type="line"/>
      <point x="205" y="699"/>
      <point x="224" y="702"/>
      <point x="239" y="702" type="curve" smooth="yes"/>
      <point x="264" y="702"/>
      <point x="291" y="692"/>
      <point x="305" y="670" type="curve"/>
      <point x="297" y="683" type="line"/>
      <point x="273" y="626"/>
      <point x="215" y="577"/>
    </contour>
  </outline>
</glyph>
<glyph name="oaboafili-thaana" format="2">
  <unicode hex="07AF"/>
  <anchor x="189" y="414" name="_t.uni07A6"/>
  <outline>
    <contour>
      <point x="156" y="594" type="curve" smooth="yes"/>
      <point x="156" y="549"/>
      <point x="192" y="532"/>
      <point x="231" y="532" type="curve" smooth="yes"/>
      <point x="260" y="532"/>
      <point x="289" y="541"/>
      <point x="303" y="549" type="curve"/>
      <point x="299" y="570" type="line"/>
      <point x="282" y="562"/>
      <point x="257" y="554"/>
      <point x="227" y="554" type="curve" smooth="yes"/>
      <point x="204" y="554"/>
      <point x="178" y="562"/>
      <point x="178" y="595" type="curve" smooth="yes"/>
      <point x="178" y="649"/>
      <point x="252" y="713"/>
      <point x="304" y="713" type="curve" smooth="yes"/>
      <point x="325" y="713"/>
      <point x="336" y="703"/>
      <point x="336" y="688" type="curve" smooth="yes"/>
      <point x="336" y="661"/>
      <point x="312" y="639"/>
      <point x="292" y="623" type="curve"/>
      <point x="309" y="608" type="line"/>
      <point x="326" y="624"/>
      <point x="358" y="655"/>
      <point x="358" y="691" type="curve" smooth="yes"/>
      <point x="358" y="718"/>
      <point x="339" y="735"/>
      <point x="305" y="735" type="curve" smooth="yes"/>
      <point x="243" y="735"/>
      <point x="156" y="664"/>
    </contour>
  </outline>
</glyph>
<glyph name="sukun-thaana" format="2">
  <unicode hex="07B0"/>
  <anchor x="110" y="414" name="_t.uni07A6"/>
  <outline>
    <contour>
      <point x="156" y="713" type="curve" smooth="yes"/>
      <point x="123" y="713"/>
      <point x="96" y="693"/>
      <point x="83" y="673" type="curve" smooth="yes"/>
      <point x="72" y="656"/>
      <point x="68" y="639"/>
      <point x="68" y="623" type="curve" smooth="yes"/>
      <point x="68" y="583"/>
      <point x="99" y="550"/>
      <point x="145" y="550" type="curve" smooth="yes"/>
      <point x="163" y="550"/>
      <point x="183" y="555"/>
      <point x="201" y="570" type="curve" smooth="yes"/>
      <point x="217" y="584"/>
      <point x="231" y="612"/>
      <point x="231" y="640" type="curve" smooth="yes"/>
      <point x="231" y="682"/>
      <point x="201" y="713"/>
    </contour>
    <contour>
      <point x="88" y="628" type="curve" smooth="yes"/>
      <point x="88" y="660"/>
      <point x="115" y="691"/>
      <point x="153" y="691" type="curve" smooth="yes"/>
      <point x="191" y="691"/>
      <point x="211" y="663"/>
      <point x="211" y="635" type="curve" smooth="yes"/>
      <point x="211" y="602"/>
      <point x="184" y="572"/>
      <point x="146" y="572" type="curve" smooth="yes"/>
      <point x="108" y="572"/>
      <point x="88" y="600"/>
    </contour>
  </outline>
</glyph>
<glyph name="naa-thaana" format="2">
  <advance width="392"/>
  <unicode hex="07B1"/>
  <anchor x="91" y="-40" name="b.uni07A8"/>
  <anchor x="284" y="414" name="t.uni07A6"/>
  <outline>
    <contour>
      <point x="32" y="30" type="curve" smooth="yes"/>
      <point x="32" y="-34"/>
      <point x="90" y="-87"/>
      <point x="186" y="-87" type="curve" smooth="yes"/>
      <point x="216" y="-87"/>
      <point x="255" y="-82"/>
      <point x="296" y="-72" type="curve"/>
      <point x="294" y="-62"/>
      <point x="293" y="-56"/>
      <point x="292" y="-49" type="curve"/>
      <point x="253" y="-59"/>
      <point x="218" y="-65"/>
      <point x="184" y="-65" type="curve" smooth="yes"/>
      <point x="105" y="-65"/>
      <point x="53" y="-24"/>
      <point x="53" y="31" type="curve" smooth="yes"/>
      <point x="53" y="91"/>
      <point x="112" y="143"/>
      <point x="214" y="211" type="curve" smooth="yes"/>
      <point x="283" y="257"/>
      <point x="331" y="295"/>
      <point x="331" y="344" type="curve" smooth="yes"/>
      <point x="331" y="385"/>
      <point x="298" y="414"/>
      <point x="249" y="414" type="curve" smooth="yes"/>
      <point x="178" y="414"/>
      <point x="90" y="353"/>
      <point x="90" y="283" type="curve" smooth="yes"/>
      <point x="90" y="245"/>
      <point x="115" y="208"/>
      <point x="174" y="190" type="curve"/>
      <point x="188" y="203" type="line"/>
      <point x="135" y="220"/>
      <point x="111" y="248"/>
      <point x="111" y="279" type="curve" smooth="yes"/>
      <point x="111" y="334"/>
      <point x="186" y="392"/>
      <point x="248" y="392" type="curve" smooth="yes"/>
      <point x="278" y="392"/>
      <point x="310" y="379"/>
      <point x="310" y="344" type="curve" smooth="yes"/>
      <point x="310" y="308"/>
      <point x="275" y="276"/>
      <point x="202" y="228" type="curve" smooth="yes"/>
      <point x="116" y="171"/>
      <point x="32" y="109"/>
    </contour>
  </outline>
</glyph>
<glyph name="quoteleft" format="2">
  <advance width="149"/>
  <unicode hex="2018"/>
  <outline>
    <contour>
      <point x="56" y="604" type="curve" smooth="yes"/>
      <point x="81" y="604"/>
      <point x="85" y="614"/>
      <point x="85" y="632" type="curve" smooth="yes"/>
      <point x="85" y="649"/>
      <point x="77" y="652"/>
      <point x="53" y="655" type="curve"/>
      <point x="53" y="676"/>
      <point x="77" y="737"/>
      <point x="109" y="781" type="curve"/>
      <point x="92" y="791" type="line"/>
      <point x="62" y="752"/>
      <point x="25" y="674"/>
      <point x="25" y="631" type="curve" smooth="yes"/>
      <point x="25" y="607"/>
      <point x="37" y="604"/>
    </contour>
  </outline>
</glyph>
<glyph name="bismillah-ar" format="2">
  <advance width="1942"/>
  <unicode hex="FDFD"/>
  <outline>
    <contour>
      <point x="921" y="184" type="curve"/>
      <point x="936" y="188" type="line"/>
      <point x="922" y="242"/>
      <point x="912" y="296"/>
      <point x="912" y="326" type="curve" smooth="yes"/>
      <point x="912" y="381"/>
      <point x="943" y="435"/>
      <point x="1024" y="448" type="curve"/>
      <point x="1046" y="386"/>
      <point x="1054" y="341"/>
      <point x="1106" y="334" type="curve" smooth="yes"/>
      <point x="1147" y="328"/>
      <point x="1257" y="329"/>
      <point x="1297" y="334" type="curve" smooth="yes"/>
      <point x="1333" y="340"/>
      <point x="1353" y="340"/>
      <point x="1365" y="379" type="curve"/>
      <point x="1356" y="378" type="line"/>
      <point x="1357" y="341"/>
      <point x="1385" y="334"/>
      <point x="1405" y="334" type="curve" smooth="yes"/>
      <point x="1442" y="334"/>
      <point x="1458" y="341"/>
      <point x="1468" y="374" type="curve"/>
      <point x="1459" y="374" type="line"/>
      <point x="1459" y="344"/>
      <point x="1478" y="334"/>
      <point x="1512" y="334" type="curve" smooth="yes"/>
      <point x="1549" y="334"/>
      <point x="1570" y="347"/>
      <point x="1570" y="378" type="curve"/>
      <point x="1566" y="380" type="line"/>
      <point x="1572" y="347"/>
      <point x="1591" y="334"/>
      <point x="1627" y="334" type="curve" smooth="yes"/>
      <point x="1672" y="334"/>
      <point x="1689" y="357"/>
      <point x="1689" y="396" type="curve" smooth="yes"/>
      <point x="1689" y="414"/>
      <point x="1686" y="428"/>
      <point x="1682" y="446" type="curve"/>
      <point x="1664" y="441" type="line"/>
      <point x="1668" y="426"/>
      <point x="1671" y="410"/>
      <point x="1671" y="395" type="curve" smooth="yes"/>
      <point x="1671" y="361"/>
      <point x="1658" y="350"/>
      <point x="1630" y="350" type="curve" smooth="yes"/>
      <point x="1584" y="350"/>
      <point x="1579" y="361"/>
      <point x="1571" y="470" type="curve"/>
      <point x="1554" y="469" type="line"/>
      <point x="1558" y="429"/>
      <point x="1558" y="407"/>
      <point x="1558" y="385" type="curve" smooth="yes"/>
      <point x="1558" y="362"/>
      <point x="1547" y="351"/>
      <point x="1515" y="351" type="curve" smooth="yes"/>
      <point x="1478" y="351"/>
      <point x="1473" y="359"/>
      <point x="1473" y="373" type="curve" smooth="yes"/>
      <point x="1473" y="389"/>
      <point x="1477" y="423"/>
      <point x="1481" y="441" type="curve"/>
      <point x="1464" y="444" type="line"/>
      <point x="1452" y="355"/>
      <point x="1446" y="351"/>
      <point x="1409" y="351" type="curve" smooth="yes"/>
      <point x="1378" y="351"/>
      <point x="1369" y="364"/>
      <point x="1369" y="386" type="curve" smooth="yes"/>
      <point x="1369" y="398"/>
      <point x="1376" y="426"/>
      <point x="1378" y="437" type="curve"/>
      <point x="1362" y="441" type="line"/>
      <point x="1345" y="353"/>
      <point x="1339" y="356"/>
      <point x="1300" y="351" type="curve" smooth="yes"/>
      <point x="1256" y="346"/>
      <point x="1159" y="345"/>
      <point x="1110" y="350" type="curve" smooth="yes"/>
      <point x="1085" y="353"/>
      <point x="1074" y="362"/>
      <point x="1058" y="404" type="curve" smooth="yes"/>
      <point x="1040" y="455"/>
      <point x="1039" y="463"/>
      <point x="1024" y="463" type="curve" smooth="yes"/>
      <point x="989" y="463"/>
      <point x="895" y="427"/>
      <point x="895" y="326" type="curve" smooth="yes"/>
      <point x="895" y="304"/>
      <point x="905" y="242"/>
    </contour>
    <contour>
      <point x="184" y="-7" type="curve" smooth="yes"/>
      <point x="204" y="-7"/>
      <point x="221" y="4"/>
      <point x="230" y="19" type="curve"/>
      <point x="217" y="29" type="line"/>
      <point x="196" y="-6"/>
      <point x="132" y="3"/>
      <point x="100" y="78" type="curve"/>
      <point x="87" y="66" type="line"/>
      <point x="119" y="0"/>
      <point x="159" y="-7"/>
    </contour>
    <contour>
      <point x="332" y="-170" type="line"/>
      <point x="344" y="-170" type="line"/>
      <point x="342" y="-103" type="line"/>
      <point x="330" y="-103" type="line"/>
    </contour>
    <contour>
      <point x="311" y="-80" type="curve" smooth="yes"/>
      <point x="319" y="-80"/>
      <point x="326" y="-73"/>
      <point x="326" y="-65" type="curve" smooth="yes"/>
      <point x="326" y="-57"/>
      <point x="319" y="-50"/>
      <point x="311" y="-50" type="curve" smooth="yes"/>
      <point x="303" y="-50"/>
      <point x="296" y="-57"/>
      <point x="296" y="-65" type="curve" smooth="yes"/>
      <point x="296" y="-73"/>
      <point x="303" y="-80"/>
    </contour>
    <contour>
      <point x="361" y="-80" type="curve" smooth="yes"/>
      <point x="369" y="-80"/>
      <point x="376" y="-73"/>
      <point x="376" y="-65" type="curve" smooth="yes"/>
      <point x="376" y="-57"/>
      <point x="369" y="-50"/>
      <point x="361" y="-50" type="curve" smooth="yes"/>
      <point x="353" y="-50"/>
      <point x="346" y="-57"/>
      <point x="346" y="-65" type="curve" smooth="yes"/>
      <point x="346" y="-73"/>
      <point x="353" y="-80"/>
    </contour>
    <contour>
      <point x="73" y="-152" type="curve"/>
      <point x="88" y="-148" type="line"/>
      <point x="74" y="-94"/>
      <point x="64" y="-40"/>
      <point x="64" y="-10" type="curve" smooth="yes"/>
      <point x="64" y="45"/>
      <point x="95" y="99"/>
      <point x="176" y="112" type="curve"/>
      <point x="198" y="50"/>
      <point x="206" y="-2"/>
      <point x="268" y="-2" type="curve" smooth="yes"/>
      <point x="295" y="-2"/>
      <point x="324" y="6"/>
      <point x="326" y="36" type="curve"/>
      <point x="320" y="34" type="line"/>
      <point x="325" y="12"/>
      <point x="347" y="-2"/>
      <point x="376" y="-2" type="curve" smooth="yes"/>
      <point x="496" y="-2"/>
      <point x="521" y="67"/>
      <point x="572" y="67" type="curve"/>
      <point x="570" y="82" type="line"/>
      <point x="558" y="82" type="line" smooth="yes"/>
      <point x="537" y="82"/>
      <point x="491" y="121"/>
      <point x="429" y="121" type="curve" smooth="yes"/>
      <point x="417" y="121"/>
      <point x="399" y="118"/>
      <point x="389" y="115" type="curve"/>
      <point x="393" y="100" type="line"/>
      <point x="402" y="102"/>
      <point x="412" y="104"/>
      <point x="429" y="104" type="curve" smooth="yes"/>
      <point x="470" y="104"/>
      <point x="503" y="89"/>
      <point x="535" y="73" type="curve"/>
      <point x="489" y="51"/>
      <point x="463" y="15"/>
      <point x="380" y="15" type="curve" smooth="yes"/>
      <point x="349" y="15"/>
      <point x="337" y="25"/>
      <point x="329" y="51" type="curve" smooth="yes"/>
      <point x="327" y="60"/>
      <point x="318" y="110"/>
      <point x="312" y="143" type="curve"/>
      <point x="295" y="139" type="line"/>
      <point x="299" y="117"/>
      <point x="307" y="79"/>
      <point x="310" y="55" type="curve" smooth="yes"/>
      <point x="314" y="22"/>
      <point x="297" y="15"/>
      <point x="270" y="15" type="curve" smooth="yes"/>
      <point x="235" y="15"/>
      <point x="226" y="27"/>
      <point x="210" y="68" type="curve" smooth="yes"/>
      <point x="192" y="119"/>
      <point x="191" y="127"/>
      <point x="176" y="127" type="curve" smooth="yes"/>
      <point x="141" y="127"/>
      <point x="47" y="91"/>
      <point x="47" y="-10" type="curve" smooth="yes"/>
      <point x="47" y="-32"/>
      <point x="57" y="-94"/>
    </contour>
    <contour>
      <point x="216" y="207" type="line"/>
      <point x="379" y="275" type="line"/>
      <point x="379" y="287" type="line"/>
      <point x="216" y="219" type="line"/>
    </contour>
    <contour>
      <point x="385" y="175" type="line"/>
      <point x="547" y="242" type="line"/>
      <point x="547" y="254" type="line"/>
      <point x="385" y="187" type="line"/>
    </contour>
    <contour>
      <point x="528" y="-84" type="line"/>
      <point x="573" y="-86"/>
      <point x="643" y="-74"/>
      <point x="646" y="11" type="curve"/>
      <point x="653" y="1"/>
      <point x="667" y="-2"/>
      <point x="680" y="-2" type="curve" smooth="yes"/>
      <point x="736" y="-2"/>
      <point x="741" y="28"/>
      <point x="739" y="83" type="curve" smooth="yes"/>
      <point x="731" y="276" type="line"/>
      <point x="713" y="276" type="line"/>
      <point x="721" y="82" type="line" smooth="yes"/>
      <point x="723" y="28"/>
      <point x="724" y="15"/>
      <point x="681" y="15" type="curve" smooth="yes"/>
      <point x="669" y="15"/>
      <point x="650" y="15"/>
      <point x="643" y="37" type="curve" smooth="yes"/>
      <point x="640" y="47"/>
      <point x="626" y="104"/>
      <point x="619" y="131" type="curve"/>
      <point x="602" y="127" type="line"/>
      <point x="609" y="101"/>
      <point x="620" y="67"/>
      <point x="626" y="33" type="curve" smooth="yes"/>
      <point x="641" y="-50"/>
      <point x="580" y="-69"/>
      <point x="527" y="-67" type="curve"/>
    </contour>
    <contour>
      <point x="494" y="356" type="curve"/>
      <point x="491" y="373" type="line"/>
      <point x="463" y="361"/>
      <point x="399" y="364"/>
      <point x="399" y="398" type="curve" smooth="yes"/>
      <point x="399" y="423"/>
      <point x="440" y="453"/>
      <point x="487" y="453" type="curve"/>
      <point x="482" y="471" type="line"/>
      <point x="428" y="465"/>
      <point x="383" y="433"/>
      <point x="383" y="396" type="curve" smooth="yes"/>
      <point x="383" y="355"/>
      <point x="439" y="340"/>
    </contour>
    <contour>
      <point x="811" y="0" type="line"/>
      <point x="829" y="0" type="line"/>
      <point x="820" y="276" type="line"/>
      <point x="803" y="276" type="line"/>
    </contour>
    <contour>
      <point x="545" y="305" type="curve" smooth="yes"/>
      <point x="582" y="305"/>
      <point x="603" y="313"/>
      <point x="610" y="332" type="curve"/>
      <point x="617" y="317"/>
      <point x="634" y="305"/>
      <point x="665" y="305" type="curve" smooth="yes"/>
      <point x="718" y="305"/>
      <point x="732" y="330"/>
      <point x="730" y="378" type="curve" smooth="yes"/>
      <point x="722" y="583" type="line"/>
      <point x="705" y="583" type="line"/>
      <point x="713" y="372" type="line" smooth="yes"/>
      <point x="714" y="333"/>
      <point x="705" y="322"/>
      <point x="665" y="322" type="curve" smooth="yes"/>
      <point x="632" y="322"/>
      <point x="615" y="334"/>
      <point x="614" y="372" type="curve" smooth="yes"/>
      <point x="609" y="542" type="line"/>
      <point x="592" y="542" type="line"/>
      <point x="597" y="372" type="line" smooth="yes"/>
      <point x="598" y="333"/>
      <point x="592" y="322"/>
      <point x="549" y="322" type="curve" smooth="yes"/>
      <point x="500" y="322"/>
      <point x="498" y="343"/>
      <point x="497" y="364" type="curve" smooth="yes"/>
      <point x="491" y="507" type="line"/>
      <point x="474" y="507" type="line"/>
      <point x="479" y="373" type="line" smooth="yes"/>
      <point x="481" y="321"/>
      <point x="500" y="305"/>
    </contour>
    <contour>
      <point x="989" y="117" type="curve" smooth="yes"/>
      <point x="997" y="117"/>
      <point x="1004" y="124"/>
      <point x="1004" y="132" type="curve" smooth="yes"/>
      <point x="1004" y="140"/>
      <point x="997" y="147"/>
      <point x="989" y="147" type="curve" smooth="yes"/>
      <point x="981" y="147"/>
      <point x="974" y="140"/>
      <point x="974" y="132" type="curve" smooth="yes"/>
      <point x="974" y="124"/>
      <point x="981" y="117"/>
    </contour>
    <contour>
      <point x="578" y="558" type="curve" smooth="yes"/>
      <point x="592" y="558"/>
      <point x="604" y="570"/>
      <point x="604" y="586" type="curve"/>
      <point x="599" y="593" type="line"/>
      <point x="599" y="577"/>
      <point x="608" y="569"/>
      <point x="623" y="569" type="curve" smooth="yes"/>
      <point x="642" y="569"/>
      <point x="651" y="585"/>
      <point x="651" y="601" type="curve" smooth="yes"/>
      <point x="651" y="611"/>
      <point x="648" y="624"/>
      <point x="644" y="635" type="curve"/>
      <point x="632" y="631" type="line"/>
      <point x="636" y="621"/>
      <point x="639" y="611"/>
      <point x="639" y="601" type="curve" smooth="yes"/>
      <point x="639" y="592"/>
      <point x="636" y="581"/>
      <point x="623" y="581" type="curve" smooth="yes"/>
      <point x="611" y="581"/>
      <point x="609" y="591"/>
      <point x="609" y="599" type="curve"/>
      <point x="609" y="626" type="line"/>
      <point x="597" y="620" type="line"/>
      <point x="597" y="607" type="line"/>
      <point x="596" y="578"/>
      <point x="589" y="571"/>
      <point x="578" y="571" type="curve" smooth="yes"/>
      <point x="569" y="571"/>
      <point x="566" y="577"/>
      <point x="566" y="590" type="curve" smooth="yes"/>
      <point x="566" y="597"/>
      <point x="567" y="603"/>
      <point x="568" y="612" type="curve"/>
      <point x="556" y="609" type="line"/>
      <point x="555" y="600"/>
      <point x="554" y="594"/>
      <point x="554" y="588" type="curve" smooth="yes"/>
      <point x="554" y="574"/>
      <point x="558" y="558"/>
    </contour>
    <contour>
      <point x="994" y="-104" type="curve" smooth="yes"/>
      <point x="1081" y="-104"/>
      <point x="1113" y="-44"/>
      <point x="1111" y="15" type="curve"/>
      <point x="1119" y="4"/>
      <point x="1137" y="-2"/>
      <point x="1156" y="-2" type="curve" smooth="yes"/>
      <point x="1182" y="-2"/>
      <point x="1197" y="2"/>
      <point x="1226" y="58" type="curve" smooth="yes"/>
      <point x="1243" y="88"/>
      <point x="1256" y="107"/>
      <point x="1286" y="107" type="curve"/>
      <point x="1314" y="34"/>
      <point x="1330" y="-2"/>
      <point x="1377" y="-2" type="curve" smooth="yes"/>
      <point x="1501" y="-2"/>
      <point x="1526" y="67"/>
      <point x="1579" y="67" type="curve"/>
      <point x="1577" y="82" type="line"/>
      <point x="1565" y="82" type="line" smooth="yes"/>
      <point x="1544" y="82"/>
      <point x="1498" y="121"/>
      <point x="1436" y="121" type="curve" smooth="yes"/>
      <point x="1424" y="121"/>
      <point x="1406" y="118"/>
      <point x="1396" y="115" type="curve"/>
      <point x="1400" y="100" type="line"/>
      <point x="1409" y="102"/>
      <point x="1419" y="104"/>
      <point x="1436" y="104" type="curve" smooth="yes"/>
      <point x="1477" y="104"/>
      <point x="1510" y="87"/>
      <point x="1542" y="73" type="curve"/>
      <point x="1494" y="51"/>
      <point x="1468" y="15"/>
      <point x="1382" y="15" type="curve" smooth="yes"/>
      <point x="1355" y="15"/>
      <point x="1342" y="20"/>
      <point x="1322" y="64" type="curve" smooth="yes"/>
      <point x="1302" y="112"/>
      <point x="1299" y="124"/>
      <point x="1282" y="124" type="curve" smooth="yes"/>
      <point x="1259" y="124"/>
      <point x="1235" y="112"/>
      <point x="1206" y="54" type="curve" smooth="yes"/>
      <point x="1192" y="27"/>
      <point x="1180" y="15"/>
      <point x="1159" y="15" type="curve" smooth="yes"/>
      <point x="1139" y="15"/>
      <point x="1120" y="19"/>
      <point x="1110" y="46" type="curve" smooth="yes"/>
      <point x="1107" y="55"/>
      <point x="1103" y="72"/>
      <point x="1093" y="108" type="curve"/>
      <point x="1075" y="101" type="line"/>
      <point x="1084" y="73"/>
      <point x="1093" y="46"/>
      <point x="1093" y="9" type="curve" smooth="yes"/>
      <point x="1093" y="-38"/>
      <point x="1070" y="-86"/>
      <point x="995" y="-86" type="curve" smooth="yes"/>
      <point x="948" y="-86"/>
      <point x="909" y="-63"/>
      <point x="909" y="-20" type="curve" smooth="yes"/>
      <point x="909" y="-3"/>
      <point x="914" y="18"/>
      <point x="927" y="43" type="curve"/>
      <point x="913" y="52" type="line"/>
      <point x="893" y="16"/>
      <point x="892" y="-10"/>
      <point x="892" y="-21" type="curve" smooth="yes"/>
      <point x="892" y="-78"/>
      <point x="940" y="-104"/>
    </contour>
    <contour>
      <point x="804" y="307" type="line"/>
      <point x="821" y="307" type="line"/>
      <point x="813" y="583" type="line"/>
      <point x="796" y="583" type="line"/>
    </contour>
    <contour>
      <point x="1298" y="-7" type="curve" smooth="yes"/>
      <point x="1318" y="-7"/>
      <point x="1335" y="4"/>
      <point x="1344" y="19" type="curve"/>
      <point x="1331" y="29" type="line"/>
      <point x="1311" y="-3"/>
      <point x="1255" y="2"/>
      <point x="1221" y="60" type="curve"/>
      <point x="1207" y="51" type="line"/>
      <point x="1238" y="-1"/>
      <point x="1274" y="-7"/>
    </contour>
    <contour>
      <point x="1032" y="329" type="curve" smooth="yes"/>
      <point x="1052" y="329"/>
      <point x="1069" y="340"/>
      <point x="1078" y="355" type="curve"/>
      <point x="1065" y="365" type="line"/>
      <point x="1044" y="330"/>
      <point x="980" y="339"/>
      <point x="948" y="414" type="curve"/>
      <point x="935" y="402" type="line"/>
      <point x="967" y="336"/>
      <point x="1007" y="329"/>
    </contour>
    <contour>
      <point x="1172" y="177" type="line"/>
      <point x="1184" y="177" type="line"/>
      <point x="1181" y="258" type="line"/>
      <point x="1169" y="258" type="line"/>
    </contour>
    <contour>
      <point x="1334" y="185" type="line"/>
      <point x="1391" y="185"/>
      <point x="1427" y="216"/>
      <point x="1441" y="241" type="curve"/>
      <point x="1420" y="255"/>
      <point x="1384" y="268"/>
      <point x="1368" y="268" type="curve" smooth="yes"/>
      <point x="1357" y="268"/>
      <point x="1349" y="262"/>
      <point x="1337" y="249" type="curve"/>
      <point x="1345" y="241" type="line"/>
      <point x="1354" y="251"/>
      <point x="1361" y="256"/>
      <point x="1367" y="256" type="curve" smooth="yes"/>
      <point x="1381" y="256"/>
      <point x="1414" y="244"/>
      <point x="1426" y="236" type="curve"/>
      <point x="1428" y="243" type="line"/>
      <point x="1419" y="226"/>
      <point x="1386" y="196"/>
      <point x="1332" y="196" type="curve"/>
    </contour>
    <contour>
      <point x="1206" y="469" type="curve" smooth="yes"/>
      <point x="1235" y="469"/>
      <point x="1251" y="491"/>
      <point x="1251" y="516" type="curve" smooth="yes"/>
      <point x="1251" y="542"/>
      <point x="1231" y="567"/>
      <point x="1208" y="567" type="curve" smooth="yes"/>
      <point x="1184" y="567"/>
      <point x="1164" y="541"/>
      <point x="1164" y="513" type="curve" smooth="yes"/>
      <point x="1164" y="490"/>
      <point x="1178" y="469"/>
    </contour>
    <contour>
      <point x="1206" y="482" type="curve" smooth="yes"/>
      <point x="1187" y="482"/>
      <point x="1176" y="493"/>
      <point x="1176" y="515" type="curve" smooth="yes"/>
      <point x="1176" y="531"/>
      <point x="1187" y="554"/>
      <point x="1207" y="554" type="curve" smooth="yes"/>
      <point x="1225" y="554"/>
      <point x="1239" y="533"/>
      <point x="1239" y="515" type="curve" smooth="yes"/>
      <point x="1239" y="492"/>
      <point x="1225" y="482"/>
    </contour>
    <contour>
      <point x="1564" y="-84" type="line"/>
      <point x="1609" y="-86"/>
      <point x="1679" y="-74"/>
      <point x="1682" y="11" type="curve"/>
      <point x="1689" y="1"/>
      <point x="1703" y="-2"/>
      <point x="1716" y="-2" type="curve" smooth="yes"/>
      <point x="1772" y="-2"/>
      <point x="1777" y="28"/>
      <point x="1775" y="83" type="curve" smooth="yes"/>
      <point x="1768" y="267" type="line"/>
      <point x="1750" y="267" type="line"/>
      <point x="1757" y="82" type="line" smooth="yes"/>
      <point x="1759" y="28"/>
      <point x="1760" y="15"/>
      <point x="1717" y="15" type="curve" smooth="yes"/>
      <point x="1705" y="15"/>
      <point x="1686" y="15"/>
      <point x="1679" y="37" type="curve" smooth="yes"/>
      <point x="1676" y="47"/>
      <point x="1662" y="104"/>
      <point x="1655" y="131" type="curve"/>
      <point x="1638" y="127" type="line"/>
      <point x="1645" y="101"/>
      <point x="1656" y="67"/>
      <point x="1662" y="33" type="curve" smooth="yes"/>
      <point x="1677" y="-50"/>
      <point x="1616" y="-69"/>
      <point x="1563" y="-67" type="curve"/>
    </contour>
    <contour>
      <point x="1664" y="253" type="curve" smooth="yes"/>
      <point x="1672" y="253"/>
      <point x="1679" y="260"/>
      <point x="1679" y="268" type="curve" smooth="yes"/>
      <point x="1679" y="276"/>
      <point x="1672" y="283"/>
      <point x="1664" y="283" type="curve" smooth="yes"/>
      <point x="1656" y="283"/>
      <point x="1649" y="276"/>
      <point x="1649" y="268" type="curve" smooth="yes"/>
      <point x="1649" y="260"/>
      <point x="1656" y="253"/>
    </contour>
    <contour>
      <point x="1848" y="0" type="line"/>
      <point x="1865" y="0" type="line"/>
      <point x="1859" y="267" type="line"/>
      <point x="1842" y="267" type="line"/>
    </contour>
    <contour>
      <point x="1810" y="301" type="curve" smooth="yes"/>
      <point x="1854" y="301"/>
      <point x="1867" y="322"/>
      <point x="1867" y="340" type="curve" smooth="yes"/>
      <point x="1867" y="360"/>
      <point x="1852" y="370"/>
      <point x="1836" y="370" type="curve" smooth="yes"/>
      <point x="1806" y="370"/>
      <point x="1783" y="337"/>
      <point x="1771" y="314" type="curve"/>
      <point x="1764" y="315"/>
      <point x="1757" y="316"/>
      <point x="1752" y="317" type="curve"/>
      <point x="1751" y="306" type="line"/>
      <point x="1763" y="304"/>
      <point x="1792" y="301"/>
    </contour>
    <contour>
      <point x="1811" y="312" type="curve" smooth="yes"/>
      <point x="1800" y="312"/>
      <point x="1795" y="312"/>
      <point x="1783" y="313" type="curve"/>
      <point x="1800" y="343"/>
      <point x="1819" y="358"/>
      <point x="1835" y="358" type="curve" smooth="yes"/>
      <point x="1845" y="358"/>
      <point x="1855" y="354"/>
      <point x="1855" y="338" type="curve" smooth="yes"/>
      <point x="1855" y="323"/>
      <point x="1840" y="312"/>
    </contour>
  </outline>
</glyph>
<glyph name="_part.haa" format="2">
  <advance width="955"/>
  <outline>
    <contour>
      <point x="-3" y="-68" type="curve"/>
      <point x="2" y="-74"/>
      <point x="9" y="-82"/>
      <point x="14" y="-87" type="curve"/>
      <point x="142" y="58"/>
      <point x="248" y="179"/>
      <point x="291" y="231" type="curve" smooth="yes"/>
      <point x="331" y="280"/>
      <point x="335" y="296"/>
      <point x="335" y="311" type="curve" smooth="yes"/>
      <point x="335" y="327"/>
      <point x="325" y="339"/>
      <point x="308" y="339" type="curve" smooth="yes"/>
      <point x="289" y="339"/>
      <point x="275" y="325"/>
      <point x="275" y="307" type="curve" smooth="yes"/>
      <point x="275" y="291"/>
      <point x="288" y="281"/>
      <point x="305" y="275" type="curve"/>
      <point x="303" y="283" type="line"/>
      <point x="288" y="263"/>
      <point x="269" y="240"/>
      <point x="246" y="213" type="curve" smooth="yes"/>
      <point x="193" y="152"/>
      <point x="67" y="9"/>
    </contour>
  </outline>
</glyph>
<glyph name="_part.jav" format="2">
  <advance width="483"/>
  <outline>
    <contour>
      <point x="395" y="467" type="line"/>
      <point x="372" y="441"/>
      <point x="350" y="417"/>
      <point x="330" y="396" type="curve"/>
      <point x="324" y="375" type="line"/>
      <point x="380" y="345"/>
      <point x="421" y="306"/>
      <point x="437" y="267" type="curve"/>
      <point x="445" y="280" type="line"/>
      <point x="416" y="250"/>
      <point x="361" y="236"/>
      <point x="305" y="236" type="curve" smooth="yes"/>
      <point x="283" y="236"/>
      <point x="259" y="238"/>
      <point x="232" y="244" type="curve"/>
      <point x="232" y="219" type="line"/>
      <point x="256" y="215"/>
      <point x="280" y="214"/>
      <point x="301" y="214" type="curve" smooth="yes"/>
      <point x="361" y="214"/>
      <point x="419" y="229"/>
      <point x="445" y="256" type="curve"/>
      <point x="448" y="263"/>
      <point x="451" y="271"/>
      <point x="451" y="275" type="curve" smooth="yes"/>
      <point x="451" y="297"/>
      <point x="413" y="351"/>
      <point x="342" y="390" type="curve"/>
      <point x="346" y="383" type="line"/>
      <point x="372" y="411"/>
      <point x="390" y="432"/>
      <point x="409" y="456" type="curve"/>
    </contour>
  </outline>
</glyph>
<glyph name="allah-ar" format="2">
  <advance width="1017"/>
  <outline>
    <contour>
      <point x="394" y="-5" type="curve" smooth="yes"/>
      <point x="478" y="-5"/>
      <point x="506" y="24"/>
      <point x="519" y="70" type="curve"/>
      <point x="532" y="29"/>
      <point x="562" y="-5"/>
      <point x="626" y="-5" type="curve" smooth="yes"/>
      <point x="744" y="-5"/>
      <point x="763" y="36"/>
      <point x="759" y="146" type="curve" smooth="yes"/>
      <point x="742" y="630" type="line"/>
      <point x="721" y="630" type="line"/>
      <point x="737" y="144" type="line" smooth="yes"/>
      <point x="740" y="50"/>
      <point x="733" y="17"/>
      <point x="634" y="17" type="curve" smooth="yes"/>
      <point x="551" y="17"/>
      <point x="532" y="52"/>
      <point x="529" y="170" type="curve" smooth="yes"/>
      <point x="520" y="509" type="line"/>
      <point x="497" y="509" type="line"/>
      <point x="507" y="169" type="line" smooth="yes"/>
      <point x="510" y="73"/>
      <point x="507" y="17"/>
      <point x="403" y="17" type="curve" smooth="yes"/>
      <point x="313" y="17"/>
      <point x="299" y="39"/>
      <point x="295" y="122" type="curve" smooth="yes"/>
      <point x="280" y="466" type="line"/>
      <point x="258" y="466" type="line"/>
      <point x="261" y="363" type="line"/>
      <point x="142" y="343"/>
      <point x="50" y="257"/>
      <point x="50" y="172" type="curve" smooth="yes"/>
      <point x="50" y="87"/>
      <point x="163" y="54"/>
      <point x="276" y="79" type="curve"/>
      <point x="288" y="7"/>
      <point x="331" y="-5"/>
    </contour>
    <contour>
      <point x="274" y="100" type="line"/>
      <point x="187" y="81"/>
      <point x="73" y="97"/>
      <point x="73" y="175" type="curve" smooth="yes"/>
      <point x="73" y="249"/>
      <point x="164" y="325"/>
      <point x="262" y="341" type="curve"/>
    </contour>
    <contour>
      <point x="928" y="-1" type="line"/>
      <point x="950" y="-1" type="line"/>
      <point x="933" y="630" type="line"/>
      <point x="911" y="630" type="line"/>
    </contour>
    <contour>
      <point x="452" y="534" type="curve" smooth="yes"/>
      <point x="490" y="534"/>
      <point x="509" y="567"/>
      <point x="509" y="605" type="curve"/>
      <point x="499" y="605" type="line"/>
      <point x="499" y="579"/>
      <point x="517" y="561"/>
      <point x="545" y="561" type="curve" smooth="yes"/>
      <point x="585" y="561"/>
      <point x="601" y="591"/>
      <point x="601" y="629" type="curve" smooth="yes"/>
      <point x="601" y="655"/>
      <point x="594" y="685"/>
      <point x="587" y="700" type="curve"/>
      <point x="568" y="694" type="line"/>
      <point x="575" y="675"/>
      <point x="580" y="653"/>
      <point x="580" y="629" type="curve" smooth="yes"/>
      <point x="580" y="600"/>
      <point x="571" y="582"/>
      <point x="546" y="582" type="curve" smooth="yes"/>
      <point x="524" y="582"/>
      <point x="512" y="594"/>
      <point x="512" y="609" type="curve"/>
      <point x="512" y="676" type="line"/>
      <point x="492" y="669" type="line"/>
      <point x="492" y="617" type="line"/>
      <point x="492" y="571"/>
      <point x="473" y="554"/>
      <point x="453" y="554" type="curve" smooth="yes"/>
      <point x="427" y="554"/>
      <point x="419" y="577"/>
      <point x="419" y="601" type="curve" smooth="yes"/>
      <point x="419" y="613"/>
      <point x="421" y="629"/>
      <point x="424" y="651" type="curve"/>
      <point x="405" y="646" type="line"/>
      <point x="402" y="628"/>
      <point x="400" y="611"/>
      <point x="400" y="600" type="curve" smooth="yes"/>
      <point x="400" y="560"/>
      <point x="417" y="534"/>
    </contour>
    <contour>
      <point x="489" y="713" type="line"/>
      <point x="509" y="713" type="line"/>
      <point x="504" y="856" type="line"/>
      <point x="484" y="856" type="line"/>
    </contour>
  </outline>
</glyph>
<glyph name="dotabove" format="2">
  <anchor x="292" y="512" name="_top"/>
  <outline>
    <contour>
      <point x="298" y="538" type="curve" smooth="yes"/>
      <point x="316" y="538"/>
      <point x="325" y="544"/>
      <point x="325" y="564" type="curve" smooth="yes"/>
      <point x="325" y="584"/>
      <point x="316" y="590"/>
      <point x="296" y="590" type="curve" smooth="yes"/>
      <point x="277" y="590"/>
      <point x="268" y="581"/>
      <point x="268" y="559" type="curve" smooth="yes"/>
      <point x="268" y="543"/>
      <point x="278" y="538"/>
    </contour>
  </outline>
</glyph>
<glyph name="dotbelow" format="2">
  <anchor x="328" y="0" name="_bottom"/>
  <outline>
    <contour>
      <point x="332" y="-84" type="curve" smooth="yes"/>
      <point x="350" y="-84"/>
      <point x="359" y="-78"/>
      <point x="359" y="-58" type="curve" smooth="yes"/>
      <point x="359" y="-38"/>
      <point x="350" y="-32"/>
      <point x="330" y="-32" type="curve" smooth="yes"/>
      <point x="311" y="-32"/>
      <point x="302" y="-41"/>
      <point x="302" y="-63" type="curve" smooth="yes"/>
      <point x="302" y="-79"/>
      <point x="312" y="-84"/>
    </contour>
  </outline>
</glyph>
